<?xml version="1.0" encoding="UTF-8"?>
<svg id="_レイヤー_2" data-name="レイヤー 2" xmlns="http://www.w3.org/2000/svg" viewBox="0 0 337.9183237 265.1551468">
  <defs>
    <style>
      .cls-1 {
        fill: #462e2e;
        stroke-width: 0px;
      }
    </style>
  </defs>
  <g id="top">
    <g>
      <g>
        <path class="cls-1" d="m11.71517,115.8240922c.7128906-.7744141,1.3134766-1.6655273,1.9140625-2.7504883-.2255859-.0776367-.4130859-.1547852-.6376953-.2709961-2.4404297-1.2397461-3.9794922-3.3320312-4.8798828-5.3852539-.8261719-1.8984375-1.1259766-4.4941406-.5634766-7.6708984-.2626953.3095703-.5253906.6586914-.7509766.9682617-.9384766,1.3173828-2.0263672,3.0605469-2.5517578,5.269043-.5634766,2.1308594-1.0136719,3.4482422-.4130859,5.6953125.375,1.5107422.4882812,2.7504883-.1503906,2.9829102-.6757812.2324219-1.3515625-.4262695-2.0263672-1.8208008-.6386719-1.3945312-1.0888672-3.1381836-1.2392578-4.9204102-.1503906-1.8984375.0751953-3.7963867.4882812-5.4238281.4501953-1.7045898.5253906-3.1767578.4130859-4.2617188-.1132812-1.0844727-.5634766-2.2856445-1.0517578-3.0214844-.2998047-.4262695-.375-1.0463867-.0751953-1.2402344.3378906-.2709961.8632812.1938477,1.2763672.6977539.3759766.503418,1.3144531,1.6655273,1.5771484,2.828125.375,1.5107422.2246094,2.828125-.1132812,4.5327148-.2998047,1.7431641-.5253906,3.6806641-.2246094,5.5014648.0371094-.7363281.1875-1.4335938.5625-2.6347656.6757812-2.2856445,1.4638672-4.4165039,3.5664062-6.7021484.5253906-.5810547,1.0507812-1.0458984,1.5761719-1.5107422.7138672-1.6274414,1.8769531-3.0219727,3.5664062-3.3320312,1.0136719-.1938477,1.8017578-.0776367,2.4394531.1938477,1.9521484-.4262695,4.1669922-.1552734,6.1191406.9296875,1.9892578,1.0849609,3.1904297,3.2543945,3.6777344,5.3461914.4511719,2.0922852.4130859,4.5332031-.1123047,6.5087891-.6005859,2.1694336-1.6513672,4.184082-3.7158203,5.7724609-1.6142578,1.2397461-3.5283203,1.7045898-5.3681641,1.3950195-.6376953.9682617-1.2011719,1.7045898-1.9521484,2.5566406-.9003906,1.0073242-1.8759766,1.9760742-3.0771484,2.7509766-.4130859.2324219-.8632812.3486328-.9765625.1547852-.1494141-.1162109-.0751953-.503418.2626953-.7749023.6757812-.503418,1.5390625-1.355957,2.4404297-2.3632812Zm2.6650391-4.184082c.6005859-1.2397461,1.0136719-2.5180664,1.2763672-4.184082.2998047-1.859375.2998047-3.9516602.2246094-5.152832-.1123047-2.2470703-.4501953-4.2226562-1.2763672-5.8110352-.2246094-.4262695-.5253906-.7749023-.9003906-.96875-.5634766.1938477-1.0888672.4262695-1.6894531.7363281-.9384766.503418-1.8017578,1.0458984-2.5898438,1.7045898-.3378906.9296875-.5253906,2.0532227-.5625,3.1381836-.0751953,2.3632812.2626953,4.7265625,1.1630859,6.5473633.7880859,1.5107422,2.3652344,3.3706055,4.3544922,3.9902344Zm1.7265625-16.6591797c.2255859.3491211.4501953.6977539.6376953,1.0849609.9013672,1.8208008,1.2392578,3.4091797,1.3896484,5.4628906.1123047,1.7817383,0,4.1450195-.4130859,5.8886719-.4882812,1.8984375-.9013672,2.9829102-1.7265625,4.4550781,2.1767578-.0771484,3.9033203-.9296875,5.2167969-3.0991211,1.3896484-2.2856445,1.6894531-5.6176758,1.3515625-8.1357422-.3378906-2.4794922-2.1015625-4.8041992-4.0908203-5.3466797-.9013672-.2324219-1.6894531-.3100586-2.3652344-.3100586Z"/>
        <path class="cls-1" d="m56.4632168,109.3929398c.0371094-.8520508-.0751953-2.0917969-.9765625-3.0219727-.9384766-.9682617-1.7265625-1.2783203-2.9277344-1.3945312-.9384766-.0776367-2.1015625.0776367-2.8525391.4648438-.7509766.3486328-2.0273438,1.2011719-2.8525391,1.8208008-.7890625.581543-1.9521484,1.6274414-2.890625,2.440918-.9384766.7749023-2.1396484,1.2783203-3.1152344,1.2397461-.9765625,0-2.0644531-.5810547-2.5908203-1.0458984-.5253906-.4648438-.8251953-1.0463867-.6376953-1.2397461.2626953-.3486328.6757812-.2324219.9384766-.1552734.4501953.1552734,1.0507812.2324219,1.7265625.2324219.6757812-.0385742,1.2763672-.503418,1.8017578-.7358398.5634766-.2709961,2.4023438-1.3945312,3.2285156-1.8598633.7880859-.4648438,1.8769531-1.0844727,3.078125-1.5493164,1.1630859-.5424805,2.4765625-1.0463867,4.015625-1.0463867,1.5019531-.0385742,3.078125.7363281,4.1298828,1.7436523.9375.9296875,1.5380859,2.0532227,1.6884766,3.6806641.1875,1.5883789-.1875,3.0605469-1.1259766,4.4550781-.9755859,1.3945312-2.5898438,2.4018555-3.9033203,3.0219727-1.2392578.6196289-2.703125,1.2397461-4.1298828,1.6269531-1.0878906.2714844-2.0263672.4262695-2.4023438.3876953-.3378906,0-.6005859-.1552734-.6005859-.2714844,0-.1933594.1884766-.387207.5263672-.4257812.2998047,0,.6748047,0,2.0263672-.3491211,1.3515625-.387207,2.890625-1.1235352,3.9794922-1.7431641,1.0878906-.6196289,2.3271484-1.9370117,2.8896484-2.7895508.6386719-.9296875.9384766-2.4794922.9765625-3.4868164Z"/>
        <path class="cls-1" d="m81.2034512,102.8070023c-.6376953,1.1235352-.9755859,2.440918-.9755859,2.9057617s.6757812,1.1235352,1.1259766,1.7431641c.4130859.6201172,1.4638672,1.8984375,2.4775391,3.1381836.9755859,1.2397461,1.8769531,2.5571289,2.5898438,3.9516602.7509766,1.5498047,1.2011719,3.0219727,1.2011719,4.2226562,0,1.1625977-.2998047,1.8212891-.9003906,1.8984375-.6386719.1162109-1.1640625-.3095703-1.3144531-1.0458984-.1875-.7358398-.4121094-1.5498047-.75-2.828125s-1.0888672-2.6733398-1.8398438-4.184082c-.7128906-1.5112305-1.8769531-3.1767578-2.4023438-3.9516602-.5253906-.8134766-1.4638672-1.8208008-1.5390625-2.7509766-.0751953-.9296875.5634766-2.5180664,1.2392578-3.8354492.6748047-1.3168945,2.1396484-3.4868164,3.0029297-4.6103516.9003906-1.1235352,2.2519531-2.6342773,2.5898438-3.1376953.3378906-.5424805.1875-1.2397461.0751953-1.6274414-.0751953-.4262695-.1132812-.8134766.1875-1.0073242.4501953-.2324219.9755859.1552734,1.5009766.6972656.5634766.5039062.8632812,1.2397461.8261719,1.9760742-.0371094.7358398-.4501953,1.3945312-1.2011719,2.0917969-.7509766.6977539-2.1767578,1.7436523-3.1533203,2.6733398-.9755859.9296875-2.1015625,2.5185547-2.7402344,3.6806641Z"/>
        <path class="cls-1" d="m124.4505215,111.0975297c.7880859-2.3242188.8251953-4.6489258.6005859-6.4697266-.2255859-1.7822266-.6757812-3.0605469-1.8769531-4.1064453-1.2011719-1.0849609-2.703125-1.355957-4.0917969-1.1625977-1.3886719.1938477-2.4775391.8525391-3.265625,1.6274414-1.2011719,1.1621094-1.6894531,2.5566406-1.6894531,4.1064453,0,1.6660156.9384766,2.8671875,1.4267578,3.6806641.4882812.7749023.7880859,2.1694336-.0751953,2.6733398-.8632812.4648438-1.8388672-.3100586-2.5898438-1.5498047-.7509766-1.2011719-1.0888672-3.0605469-1.2011719-4.8041992-.0751953-1.7822266.1123047-3.6416016.4501953-4.9199219.3378906-1.2402344.5634766-2.5571289.6386719-3.8359375.0742188-1.2006836-.3378906-2.0141602-.8632812-2.5180664-.4511719-.387207-.6757812-.7358398-.6005859-1.0844727.1123047-.3491211.7128906-.4262695,1.1630859-.2714844.4882812.1547852.9384766.2714844,1.8017578,1.4335938.8261719,1.1621094.6757812,2.8666992.2255859,4.1064453-.4511719,1.2788086-1.1640625,2.7509766-1.0507812,4.1069336.2246094-.6201172.5996094-1.3173828,1.2382812-1.8984375.8261719-.7749023,2.4023438-1.8208008,4.1660156-2.0532227,1.7646484-.2324219,3.5664062,0,5.0683594,1.2397461,1.0878906.9296875,2.2890625,2.1694336,2.8525391,4.4936523.6005859,2.440918.5253906,3.9907227.2246094,5.8115234-.2998047,1.8208008-.75,3.2543945-1.9892578,4.9589844-1.2763672,1.7045898-2.7402344,2.828125-4.2792969,3.5644531-1.5761719.7749023-2.9648438,1.1621094-4.3535156,1.3945312-1.3515625.2709961-2.2529297.3100586-2.7783203.2709961-.5625,0-.8251953-.1933594-.8251953-.3486328.0371094-.1933594.1875-.3486328.6757812-.387207.6748047-.0776367,1.4257812-.1547852,2.2890625-.3486328,2.1777344-.5424805,3.9414062-1.3173828,5.4804688-2.7509766,1.5390625-1.4331055,2.5527344-2.828125,3.2285156-4.9589844Z"/>
        <path class="cls-1" d="m162.1038418,117.4901078c-2.0273438.2324219-5.3300781.3486328-7.8828125.3486328-2.5527344-.0385742-5.1796875-.5810547-6.2685547-1.9755859-1.0507812-1.355957-1.1640625-3.3320312-.1875-4.9204102.9003906-1.4335938,2.1015625-2.4794922,3.7910156-3.5644531-.8261719-.4648438-1.4638672-1.3168945-1.6142578-2.1303711-.2255859-1.0073242.0751953-3.1381836.1875-4.4941406.1132812-1.3950195.2626953-2.9057617.3007812-4.0292969.0371094-1.1235352-.2255859-2.1308594-.5253906-2.5957031-.3378906-.4648438-.6757812-1.0458984-.5253906-1.3945312.2998047-.6201172,1.0878906-.1938477,1.5761719.2324219.4882812.4257812,1.2763672,1.472168,1.5761719,2.2080078.3007812.6972656.1503906,1.7436523-.0751953,2.5185547-.2246094.8520508-.6005859,1.9370117-.7880859,3.2929688-.2246094,1.3168945-.375,3.215332-.4130859,4.2617188-.0371094.6582031.2255859,1.1230469.8261719,1.7817383,2.2148438-1.3945312,4.7675781-2.6728516,6.9814453-3.8354492.6005859-.3486328.3759766-1.1235352,0-1.6269531-.375-.4648438.1132812-.8134766.7138672-.7363281.4130859.0776367.9755859.2714844,1.5390625.7749023.6376953.5424805,1.2382812,2.0922852.0371094,2.6733398-4.9550781,2.4018555-8.2958984,3.796875-10.7353516,5.6176758-2.3652344,1.7431641-2.7773438,3.6030273-1.5390625,5.0361328,1.0136719,1.1235352,3.1152344,1.5888672,5.1054688,1.5498047,1.9892578,0,4.1660156-.387207,5.3300781-.7749023,1.2011719-.4257812,3.3779297-.6582031,3.9785156.3100586.5634766.9296875-.3378906,1.355957-1.3886719,1.472168Z"/>
        <path class="cls-1" d="m183.5403653,94.1287797l1.2763672-1.6274414c1.2763672,1.0849609,1.9140625,1.7822266,1.9140625,2.0922852,0,.1938477-.1123047.387207-.3378906.5424805l-.6757812.4648438v21.5791016h-1.8759766v-2.4794922h-5.2177734v3.7192383h-1.8769531v-25.3759766c.5625.1938477,1.3886719.5810547,2.4023438,1.0849609h4.3916016Zm-4.9169922.8911133v8.6005859h5.2177734v-8.6005859h-5.2177734Zm5.2177734,18.7895508v-9.2978516h-5.2177734v9.2978516h5.2177734Zm12.3867188-17.0463867v5.4238281h6.15625l1.6513672-2.3632812c.9384766,1.0463867,1.6142578,1.8984375,2.1015625,2.5571289l-.3369141.6972656h-19.2939453l-.3759766-.8911133h8.2207031v-5.4238281h-6.3056641l-.4130859-.8911133h6.71875v-5.2299805c2.1767578.0385742,3.265625.3486328,3.265625.7749023,0,.3100586-.4882812.6196289-1.3886719.9682617v3.4868164h4.4667969l1.6142578-2.2470703c.7128906.7749023,1.4257812,1.5498047,2.0644531,2.440918l-.3759766.6972656h-7.7695312Zm4.5791016,12.1264648v9.9956055c0,1.7817383-1.1630859,2.7119141-3.4902344,2.7119141,0-.6586914-.2626953-1.0849609-.8261719-1.355957-.5634766-.2324219-1.8388672-.5039062-3.7539062-.8139648v-.9296875c2.0273438.1547852,3.6416016.2709961,4.8798828.2709961.8632812,0,1.2763672-.3486328,1.2763672-1.0844727v-8.7944336h-11.9365234l-.375-.8525391h12.3115234v-4.8813477c2.0644531.4262695,3.078125.8525391,3.078125,1.2011719,0,.2324219-.4130859.503418-1.1640625.7358398v2.9443359h1.7265625l1.3896484-2.3242188c.75.8911133,1.3505859,1.6655273,1.8388672,2.4404297l-.375.7363281h-4.5800781Zm-11.0732422.9296875c3.3408203,1.6660156,4.9921875,3.2929688,4.9921875,4.9589844,0,.8911133-.375,1.3173828-1.1630859,1.3173828-.4882812,0-.8632812-.2714844-1.0136719-.7749023-.5253906-1.7436523-1.6142578-3.3706055-3.265625-4.8813477l.4501953-.6201172Z"/>
        <path class="cls-1" d="m216.6282559,109.1146195c.4638672-1.0209961,1.0205078-2.2973633,1.453125-3.4458008-.4326172.2231445-.8349609.4462891-1.1132812.5742188-.6181641.3188477-1.421875.765625-1.9169922.9570312-.4628906.2236328-1.2666016.2553711-2.0400391-.0639648-.7421875-.3505859-1.0205078-.8930664-.8964844-1.1801758.1542969-.3828125.6494141-.5424805,1.0205078-.4785156.4326172.0957031.9892578.1914062,1.8232422,0,.8349609-.159668,1.9169922-.574707,2.6591797-.8935547.2470703-.0957031.6181641-.2553711,1.0205078-.3828125.3701172-1.2763672.4628906-2.3613281.5253906-3.1586914.0615234-.8295898-.1855469-1.6591797-.4023438-2.0742188-.2158203-.4145508-.4638672-.8613281-.0615234-1.1801758.4013672-.2871094,1.2675781.0317383,1.453125.5102539.2158203.5424805.4638672,1.4038086.3398438,2.6801758-.0927734.7978516-.3398438,1.7866211-.6494141,2.7441406.3398438-.159668.6181641-.2553711.7734375-.3193359.5556641-.2231445,1.6689453-.5424805,2.7822266-.1914062,1.5146484.4785156,2.1640625,2.0742188,2.4414062,3.8608398.2783203,1.7548828.03125,3.4458008-.4941406,5.4560547-.4951172,1.9458008-1.3603516,3.1904297-2.1025391,3.9560547-.5566406.5742188-1.390625,1.2124023-1.8857422,1.2124023-.4941406,0-.8652344-.3828125-1.2363281-.8295898-.3398438-.4467773-.9580078-.925293-1.4833984-1.2758789-.5566406-.3510742-1.1445312-.6704102-1.0820312-.9575195.0927734-.2871094.6181641-.3510742,1.2363281-.1274414.4638672.159668,1.8857422.9570312,2.6279297.5424805.7412109-.3828125,1.7304688-1.5634766,2.2255859-3.1586914.4638672-1.5634766.6796875-3.3500977.6181641-4.722168-.03125-1.4038086-.4951172-2.5205078-1.3603516-2.871582-.8652344-.3828125-2.0712891.1274414-2.9990234.5102539-.1542969.0639648-.3398438.1279297-.4941406.2236328-.0615234.1274414-.0927734.2231445-.1542969.3510742-.5566406,1.371582-1.1748047,3.222168-1.7626953,4.6259766-.6181641,1.4042969-1.3603516,2.9038086-1.9785156,4.1479492-.4326172.8935547-1.390625,2.6801758-1.7001953,3.2861328-.3085938.6064453-.8037109,1.3085938-1.2363281,1.2128906-.4023438-.0639648-.7724609-.3510742-.7724609-.9892578,0-.4467773.7109375-1.3720703,1.2666016-2.0419922.4951172-.6699219,1.2675781-1.7548828,1.7626953-2.7119141.4941406-.925293,1.1123047-2.3930664,1.7929688-3.796875Zm18.1464844-.2236328c.1542969,1.1806641-.0927734,1.7871094-.7109375,1.9785156-.6181641.1591797-1.453125.0634766-2.0400391.0317383-.5878906-.0639648-1.6074219-.2231445-1.9785156-.2871094-.3710938-.0957031-.5878906-.2871094-.5566406-.5107422,0-.1914062.1855469-.4145508.4638672-.4145508s.6181641-.0639648.9267578-.1274414c.2783203-.0322266.7734375-.1279297.9892578-.3833008.2167969-.2548828.2480469-.6699219.2783203-1.4355469.03125-.765625-.0302734-1.5952148-.3398438-2.2016602-.3085938-.605957-.7109375-1.0209961-1.1132812-1.3398438-.2158203-.1914062-.5253906-.5742188-.2773438-.8613281.1845703-.159668.5253906.0317383.8964844.2548828.3701172.2236328.9580078.7021484,1.7929688,1.6914062.8964844.9887695,1.5146484,2.456543,1.6689453,3.6049805Zm-2.84375-7.4975586c-.4638672-.4790039-1.0205078-.9575195-1.8242188-1.5-.2470703-.1914062-.3710938-.4145508-.2470703-.605957.1230469-.159668.3710938-.159668.5253906-.159668.4941406.0322266,1.0507812.1914062,1.6689453.4150391.6494141.2231445,1.5771484.7338867,1.8857422,1.3081055.2783203.5102539,0,.9887695-.4628906,1.1484375-.4335938.1274414-1.1132812-.159668-1.5458984-.605957Zm2.4423828-1.340332c-.4638672-.5742188-.9892578-.8930664-1.9169922-1.3081055-.2470703-.1274414-.4023438-.4145508-.2783203-.6064453.0927734-.1591797.3710938-.1591797.5253906-.1591797.4638672,0,1.0507812.0957031,1.7001953.2871094.6494141.2231445,1.5771484.7016602,1.8857422,1.2124023.3398438.5424805.0625,1.0527344-.3710938,1.1806641-.4326172.1591797-1.1435547-.1279297-1.5449219-.6064453Z"/>
        <path class="cls-1" d="m240.6917325,98.7391312c2.8525391.9682617,4.2421875,2.3242188,4.2421875,3.9130859,0,.890625-.3378906,1.3168945-1.0517578,1.3168945-.6005859,0-.9755859-.4262695-1.1630859-1.2397461-.2626953-1.2783203-1.0888672-2.3632812-2.4404297-3.4091797l.4130859-.5810547Zm8.9716797-.4262695l-4.3916016,14.2573242c-.3378906,1.1230469-.5263672,1.9755859-.5263672,2.4794922,0,.2709961.0380859.6582031.1884766,1.2006836.3378906,1.5498047.4873047,2.7509766.4873047,3.5253906,0,1.355957-.4873047,2.0537109-1.5390625,2.0537109-.8251953,0-1.2011719-.4262695-1.2011719-1.2788086,0-.1547852.1132812-.7749023.2255859-1.9370117.1123047-.6972656.1503906-1.472168.1503906-2.2080078,0-1.4335938-.3007812-2.440918-.9384766-2.9057617-.4130859-.3100586-.9384766-.4648438-1.6142578-.5424805v-.9296875c.4130859.0771484.7880859.1162109,1.0507812.1162109,1.0517578,0,1.7646484-.3876953,2.1396484-1.2011719,1.4267578-2.9443359,3.1533203-7.3608398,5.1425781-13.1723633l.8261719.5424805Zm-6.8691406-7.0512695c3.0400391.96875,4.5419922,2.2084961,4.5419922,3.796875,0,.8911133-.3759766,1.355957-1.2011719,1.355957-.4511719,0-.7138672-.3486328-.9384766-1.0844727-.3759766-1.2397461-1.3515625-2.3632812-2.8535156-3.4482422l.4511719-.6201172Zm3.6787109,30.2192383c2.3271484-1.472168,3.828125-3.2158203,4.5419922-5.2304688.4873047-1.3173828.75-2.9829102.75-4.9589844v-4.4550781c2.1396484.1162109,3.1904297.4257812,3.1904297.8911133,0,.3486328-.4121094.6582031-1.2382812.9682617v2.4794922c0,3.0605469-.5634766,5.5014648-1.8017578,7.3222656-1.0888672,1.5498047-2.703125,2.7895508-4.9169922,3.7192383l-.5253906-.7358398Zm10.9980469-25.6474609v-5.4624023c2.2148438.1162109,3.3027344.4257812,3.3027344.890625,0,.3100586-.4873047.6201172-1.3886719,1.0073242v3.5644531h6.4189453l1.7265625-2.440918c.8632812.7749023,1.6894531,1.6660156,2.4023438,2.6347656l-.3007812.6586914h-10.8105469c-1.0126953,1.9755859-2.2519531,3.9902344-3.7158203,5.9272461.4130859,0,.7509766-.0385742,1.0136719-.0385742,1.8017578-.0390625,3.7910156-.0776367,5.9306641-.2324219l3.1533203-.1938477c-.8261719-1.1235352-1.9892578-2.324707-3.3779297-3.4868164l.4501953-.6972656c4.6171875,2.5571289,6.90625,4.8813477,6.90625,6.8959961,0,.7749023-.4130859,1.2011719-1.2011719,1.2011719-.4130859,0-.7880859-.3876953-1.1259766-1.1625977-.2246094-.5419922-.6005859-1.1621094-1.0136719-1.8979492l-.6376953.1162109c-4.6923828.8134766-9.2714844,1.2006836-13.5888672,1.5107422-.2626953.8134766-.4873047,1.2011719-.7128906,1.2011719-.4130859,0-.8251953-1.0463867-1.2011719-3.1381836,1.9892578,0,3.3789062,0,4.2792969-.0385742.9013672-1.8212891,1.6894531-3.796875,2.3652344-5.9663086h-7.0947266l-.4130859-.8525391h8.6337891Zm-.3378906,24.3300781v-13.4047852c2.0263672.1547852,3.0400391.4648438,3.0400391.9296875,0,.2324219-.375.5039062-1.1630859.8134766v11.6616211h-1.8769531Zm12.7246094-6.3540039c-.0371094.5424805-.0371094,1.2011719-.0371094,1.9375,0,1.5107422.1123047,2.5180664.3378906,2.9443359.1123047.3100586.4501953.503418.8632812.503418-.0380859,1.0463867-.3759766,1.6660156-.9765625,1.8984375-.5253906.2324219-1.6884766.2714844-3.4150391.2714844-1.9902344,0-3.1533203-.2329102-3.5664062-.7363281-.2255859-.2709961-.375-.7749023-.375-1.472168v-13.1337891c2.1015625.1162109,3.1523438.4262695,3.1523438.9301758,0,.2709961-.4121094.5810547-1.2382812.8911133v10.6923828c0,.6977539.6005859,1.0463867,1.7636719,1.0463867.9765625,0,1.5771484-.2714844,1.8398438-.8525391.3378906-.8134766.6005859-2.3632812.7128906-4.7265625l.0380859-.5810547.9003906.387207Z"/>
        <path class="cls-1" d="m305.6722012,113.2674515c-.3378906.6196289-1.2011719,1.7431641-2.2519531,2.7504883-1.0888672,1.0073242-1.9902344,1.472168-3.1533203,1.6660156-1.1640625.1938477-1.8769531,0-2.5898438-.4262695-.8632812-.503418-1.4267578-1.1235352-1.7265625-2.2856445-.3007812-1.0849609-.0751953-3.3320312.0371094-5.2304688.0751953-1.8979492.1503906-3.6416016.2255859-5.1914062.0751953-1.7431641.1494141-3.331543-.3759766-3.8740234-.4873047-.5424805-1.5009766-.6586914-2.6650391-.387207-1.1630859.2709961-2.7402344,1.0844727-3.9033203,2.0532227-1.0888672.8520508-2.0273438,1.7431641-3.6416016,3.2929688v.6586914c.0380859,1.9755859.1503906,4.0292969.2626953,5.3461914.1132812,1.2788086.1132812,2.4023438.1503906,4.1069336,0,.8520508.0371094,2.4018555-.3378906,3.2543945-.1875.503418-.4882812.890625-1.1630859,1.0458984-.6386719.1162109-.9765625-.2324219-1.0517578-.6972656s-.1494141-1.355957-.4121094-2.5185547c-.3007812-1.1235352-.8261719-2.6342773-1.4648438-4.6875-.1494141-.4262695-.2626953-.8525391-.4121094-1.2397461h-.0380859c-1.0136719,1.472168-1.6884766,2.7504883-1.9892578,4.0288086-.3007812,1.2397461-.6005859,1.8212891-1.0507812,1.9375-.4511719.1547852-.8261719-.0390625-1.2392578-.6977539-.375-.6582031-.1875-1.1230469.4511719-2.3632812.6376953-1.2006836,1.6132812-2.5957031,2.5898438-4.0678711.1494141-.2709961.3378906-.5419922.5253906-.8520508-.3007812-.8134766-.5634766-1.5112305-.7509766-2.0532227-.4130859-1.1625977-.9384766-2.6347656-1.3886719-3.3706055-.4501953-.6972656-.0371094-1.4335938.8261719-2.1699219.8251953-.7358398,2.2890625-1.3945312,3.265625-1.859375.6757812-.2709961,1.2382812-.4648438,1.8388672-.4648438,0-.9296875-.0751953-1.8598633-.1503906-2.5571289-.1123047-.9682617-.6376953-1.7045898-1.2382812-2.4018555-.5253906-.5810547-.7128906-1.2783203-.4130859-1.5112305.4501953-.387207,1.0888672-.1933594,1.8769531.3876953.8261719.5424805,1.5009766,1.5107422,1.9521484,2.4794922.4501953.9682617.3378906,2.0532227.0371094,3.0605469-.0751953.3100586-.1875.6586914-.2255859,1.0073242.4130859.1938477.7138672.387207.8261719.6586914.1875.4262695.1123047,1.2397461-.1503906,1.7045898-.2998047.4648438-.5253906.8911133-.4501953.96875.1123047.1547852.3378906.1933594.7509766-.2329102.7128906-.7358398,3.2285156-2.4404297,4.6542969-3.4091797,1.2763672-.8911133,2.5146484-1.2006836,3.4160156-1.2006836.8632812,0,1.6513672.3095703,2.3271484,1.2006836.6005859.8134766.8261719,1.8598633.8261719,2.9057617.0371094.8911133,0,2.9443359-.1884766,4.8427734-.2626953,2.2856445-.3369141,4.5327148-.375,6.4311523-.0371094,1.9370117.7128906,2.6342773,1.8769531,2.7119141s2.4775391-.6196289,3.2285156-1.1621094c.7880859-.5424805,1.8388672-1.5112305,2.2890625-1.9370117.4511719-.4262695.9013672-.2324219.5634766.3486328Zm-21.5458984-11.5454102c-.1503906-.2324219-.4130859-.4262695-.9765625-.4262695-.6376953,0-1.7636719.465332-2.3271484.7363281-.5625.3100586-1.5009766,1.4335938-.9384766,2.6733398.3759766.8911133.7890625,1.9370117,1.2763672,3.215332.7880859-1.1621094,1.6513672-2.2856445,2.0644531-2.828125s.6757812-.9296875.8632812-1.3945312c0-.6972656.0380859-1.3950195.0380859-1.9760742Zm-.0380859,12.7460938c-.0371094-.503418-.0371094-1.2397461-.1123047-2.828125-.0371094-1.1621094-.0371094-2.6342773,0-4.300293-.8261719.8911133-1.5019531,1.7436523-2.1015625,2.5571289.6748047,1.859375,1.3134766,3.7963867,1.5761719,4.4550781.2626953.6977539.6376953.6201172.6376953.1162109Z"/>
        <path class="cls-1" d="m336.230795,115.6307328c-1.3886719,1.6269531-3.0771484,2.5566406-4.9921875,3.0605469-1.9140625.5424805-3.7539062.4648438-6.0058594.0385742-2.2900391-.503418-3.1904297-1.3173828-3.1904297-2.4794922-.0371094-1.1621094,1.4267578-2.0917969,2.6650391-2.3242188,1.2763672-.2714844,2.7773438-.1938477,3.9042969.7358398.9755859.8134766.9384766,1.7436523.4873047,2.6733398,1.8017578-.2324219,3.4912109-.7749023,4.6923828-1.7822266,1.4638672-1.2397461,2.1396484-2.9829102,2.1396484-4.7651367.0371094-1.7822266-1.2392578-3.9516602-3.3408203-4.9204102-2.1025391-.9296875-4.3544922-1.0073242-6.6816406-.2324219-2.3642578.7749023-3.8662109,1.9760742-4.9921875,3.5253906-1.1259766,1.5112305-1.9521484,3.3320312-2.2519531,4.3393555-.3007812,1.0073242-.6386719,1.5498047-1.1259766,1.8208008-.2255859.1162109-.6386719.3100586-1.2392578-.1938477-.4130859-.3486328-.4501953-1.1621094-.4130859-1.7045898.0380859-.503418.9765625-1.7431641,1.6523438-2.6342773.7128906-.9301758,1.6884766-2.3632812,2.9648438-3.796875s3.3037109-3.9902344,4.1289062-4.9589844c.7880859-1.0073242,3.3789062-4.2226562,3.7910156-4.8041992.4130859-.5419922.6005859-.9682617.4130859-1.1235352-.1875-.1933594-.8251953.0776367-1.2011719.3100586-.4130859.2714844-2.2519531,1.3950195-3.3027344,2.0146484-1.0888672.5810547-1.8769531.8525391-2.8154297.8525391s-1.5761719-.5039062-1.9521484-.8525391c-.375-.387207-.5253906-.96875-.4130859-1.2397461.1503906-.387207.5253906-.4262695.8261719-.3100586.3378906.0776367.7880859.2324219,1.2763672.2324219.4873047.0390625.9384766-.0385742,2.1015625-.5419922,1.1259766-.465332,2.6279297-1.2011719,3.9042969-1.8984375,1.2763672-.6977539,2.0644531-1.2011719,2.7773438-1.2397461.7509766-.0390625,1.5019531.4257812,1.9892578,1.0073242.4882812.5419922.5253906.8911133.4511719,1.2397461-.0751953.3486328-.2626953.5419922-.7890625.8911133-.5253906.3095703-1.6513672,1.3168945-2.6650391,2.362793-1.0126953,1.0849609-2.2519531,2.6733398-3.1523438,3.6806641,0,0-.9013672,1.0073242-2.6650391,2.9057617.5253906-.387207,1.0507812-.6972656,2.0644531-1.0849609,1.4638672-.5424805,3.0029297-.8520508,4.9169922-.6586914,1.9521484.1938477,3.5283203.8139648,4.9550781,1.8598633,1.4257812,1.0458984,2.5517578,2.5957031,2.7402344,4.8427734.1875,2.1308594-.3759766,3.6806641-1.6523438,5.152832Zm-10.8105469-.6201172c-1.2011719.0390625-1.9511719.7749023-1.4257812,1.5498047.2998047.4262695,1.2382812.8134766,2.8154297.8520508,1.4638672-1.355957.1494141-2.4018555-1.3896484-2.4018555Z"/>
        <path class="cls-1" d="m24.7054043,170.1263383c-.4882812-.5810547-.6386719-1.3173828-.3378906-1.6660156.5253906-.5810547,1.2763672-.0385742,1.6513672.2324219.5253906.3486328,1.3134766.8134766,2.0273438.9296875.7128906.1162109,1.4257812,0,2.4394531-.1162109,2.1767578-.1933594,3.640625-.387207,5.3681641-.5419922,1.0126953-.0776367,3.3027344-.3100586,4.9169922-.465332,1.6142578-.1162109,3.1904297-.3095703,3.9033203-.4257812.7509766-.0776367,1.4638672.1933594,1.8398438.4648438.375.2709961.7509766.5810547.7509766.9296875,0,.3100586-.0380859.5424805-.8261719,1.1621094-.7880859.6201172-2.4394531,1.8598633-4.1289062,2.8671875-1.5019531.9296875-3.4160156,1.5107422-5.2548828,1.9375,0,1.2392578-.0380859,2.7119141-.1884766,4.1445312-.2998047,2.2089844-.7880859,4.1845703-1.7265625,6.2382812-.9755859,2.0527344-1.6513672,3.0986328-2.7402344,4.2226562-1.0878906,1.0849609-2.6650391,2.1308594-4.6542969,3.3701172-.6376953.3486328-.9003906-.2324219-.5253906-.4648438s.9384766-.7363281,1.7265625-1.3173828c1.3134766-1.0068359,2.4404297-2.0917969,3.6416016-3.8740234s1.6884766-3.6806641,2.0263672-5.8886719c.3759766-2.2470703.3007812-4.0683594.1132812-5.9277344-.1884766-1.8208008-.7138672-3.0214844-1.6142578-4.0288086-.3378906-.3876953-.5253906-.7363281-.5253906-1.0463867-.3378906.0390625-.7138672.0776367-.9765625.1552734-1.4257812.1938477-2.7773438.3486328-4.2412109.3100586-1.5019531-.0390625-2.1025391-.5424805-2.6650391-1.2011719Zm9.796875.503418c.7128906.2714844,1.1259766.6201172,1.6894531,1.0849609.6376953.5424805.7128906,1.355957.7880859,2.0922852,0,.2324219.0371094.5424805.0371094.8520508.7509766-.3095703,1.5019531-.7749023,2.3652344-1.355957,1.1259766-.6972656,1.7265625-1.3173828,2.2890625-1.9755859.4882812-.5424805.7890625-1.0073242.6386719-1.2011719-.1123047-.2324219-.4130859-.3486328-1.0888672-.3100586-.6376953.0776367-2.8154297.3876953-4.3916016.5424805-.7128906.0776367-1.5390625.1547852-2.3271484.2709961Z"/>
        <path class="cls-1" d="m58.0042325,173.4969437c-.8632812-.4648438-1.3134766-.6972656-1.2011719-1.0849609.1875-.387207.7509766-.3100586,1.5390625-.1938477.8261719.0776367,1.6894531.3100586,2.7402344.7363281,1.0507812.4648438,1.6513672.8134766,2.5898438,1.7045898.9013672.8134766,1.4638672,2.2861328.5253906,2.8671875-.7509766.4648438-1.8388672-.078125-2.8154297-1.2011719-1.2753906-1.5107422-2.2138672-2.2470703-3.3779297-2.828125Zm24.0605469-.5424805c-.4501953.7749023-1.1630859,1.9370117-2.6269531,4.0678711-1.3134766,1.9375-2.703125,3.796875-4.7294922,5.7724609-2.0273438,2.0146484-4.0917969,3.6035156-6.34375,5.1533203-2.2148438,1.5107422-4.2792969,2.4404297-5.8183594,2.828125-1.5761719.4257812-2.2519531.1162109-2.9277344-.6591797-.6757812-.7744141-.8261719-2.1689453-.4501953-2.5185547l1.2382812.3105469c.375.2324219,1.0136719.2714844,1.7646484.2324219,1.2753906-.0771484,3.7158203-.9296875,5.4423828-2.1308594,1.7646484-1.2011719,4.1289062-3.0605469,5.8554688-4.6875,1.7265625-1.5888672,2.9277344-2.6738281,4.7675781-4.9589844,1.8769531-2.324707,2.7773438-3.5258789,3.0029297-3.8745117.2626953-.3486328.5625-.5424805.7880859-.4262695s.2998047.3876953.0371094.8911133Z"/>
        <path class="cls-1" d="m114.6888028,175.8211625c-.4130859.2714844-.9765625,0-1.7646484-.1162109-.7128906-.1542969-2.0263672-.3876953-3.1523438-.3095703-.9765625.0390625-3.1914062.2324219-4.8798828.3486328.6005859.3486328,1.2011719.8134766,1.6132812,1.3173828.5634766.6191406.4511719,1.2392578.3378906,1.4716797-.0742188.2714844-.4121094.5810547-.4873047,1.1240234-.0751953.5810547-.1132812,1.5498047-.6386719,3.5253906s-1.2011719,3.3320312-2.1767578,4.8818359c-.9384766,1.5107422-2.0644531,2.6728516-3.3037109,3.6416016-1.2011719.9296875-2.7773438,1.8203125-4.2041016,2.4404297-1.3886719.5810547-2.8896484.890625-3.4150391.96875-.5634766.0771484-.9384766.0380859-.9765625-.1552734,0-.1552734.2255859-.3876953.6005859-.4648438.4130859-.1162109,1.0888672-.2324219,1.8017578-.5039062,1.2763672-.4648438,2.2529297-.9296875,3.6416016-2.0146484,1.3505859-1.0458984,3.0029297-2.9052734,3.8662109-4.4550781s1.8017578-3.5644531,2.1015625-4.8818359c.3007812-1.3164062.4501953-3.0605469.4882812-4.4160156.0751953-1.0849609-.2626953-1.8212891-.6757812-2.3632812-1.5761719.1552734-3.265625.2714844-4.0917969.3876953-.9755859.1542969-2.1767578.3095703-3.0400391.3095703-1.1640625,0-1.8398438-.4257812-2.3652344-.890625-.4873047-.5039062-.5625-1.4335938-.2246094-1.6665039.4501953-.2709961.9384766.1162109,1.8017578.3491211.8251953.1933594,1.8017578.3095703,3.4160156.3095703,1.5761719,0,2.7773438-.1162109,4.2412109-.2324219,1.4267578-.1162109,3.5283203-.3486328,4.9550781-.5424805,1.4257812-.2324219,2.5898438-.387207,3.5283203-.4262695,1.2382812-.0771484,2.1015625.3100586,2.5146484.7363281.7128906.7363281.9384766,1.3945312.4882812,1.6269531Zm-17.8300781-5.3076172c-.6005859-.4257812-.8632812-1.3168945-.5253906-1.6655273.2998047-.3491211.9003906-.0776367,1.2763672.0385742.375.1547852.9384766.3486328,1.5761719.387207,1.2392578.0776367,2.703125-.1933594,3.2285156-.2709961.9384766-.1547852,2.2900391-.5039062,3.1904297-.7749023s1.6894531-.503418,2.5527344-.387207,1.6142578.6196289,1.8769531,1.2006836c.2998047.5810547-.2255859,1.0849609-1.4267578,1.0073242-1.1640625-.0771484-2.0273438,0-3.3408203.0390625-1.2763672.0385742-2.2519531.1547852-3.4912109.3095703-1.1630859.1552734-1.9511719.4648438-2.8896484.5810547-.8632812.1162109-1.4638672-.0771484-2.0273438-.4648438Z"/>
        <path class="cls-1" d="m126.2532559,185.9334672c.6757812-.2714844,1.1259766-.5039062,2.0644531-1.046875,1.7265625-.9677734,2.9277344-1.859375,4.8417969-3.4091797,1.8769531-1.5498047,3.6035156-3.0605469,5.0673828-4.5712891,1.3896484-1.4716797,2.3652344-2.5566406,2.890625-3.2543945.5634766-.7358398.5634766-1.1621094.3378906-1.5498047-.1875-.3486328-.2626953-.8134766,0-.9682617.6757812-.4262695,1.8769531.3486328,2.2900391.8520508.4130859.5039062.5625,1.1235352.2998047,1.6274414-.2626953.4262695-.7128906.7363281-1.2763672,1.2783203-.5253906.5039062-1.5761719,1.3945312-2.6269531,2.4023438-.5253906.5029297-1.0136719,1.0068359-1.5390625,1.4716797.375.078125.7509766.1552734,1.1259766.3486328.7509766.3486328,1.2011719.7363281,1.3134766,1.2402344.1132812.5419922-.1875.7744141-.3378906,1.3173828-.1123047.5419922-.1123047,1.8984375-.1494141,3.0214844-.0380859,1.0849609-.0380859,2.5566406-.0380859,3.9521484,0,1.3554688.1123047,3.0605469.1123047,4.2226562.0380859,1.2011719-.3369141,1.9365234-1.1259766,1.8984375-.7880859-.0390625-1.1259766-1.2783203-1.0507812-1.8984375.0751953-.5810547.2626953-1.9375.3007812-3.2158203.0371094-1.3173828.0742188-2.9052734.1494141-4.3779297.0380859-1.4335938.0751953-2.3632812.0380859-3.2539062,0-.9296875-.0751953-1.5888672-.3759766-2.0927734-.1494141-.2705078-.375-.3867188-.6748047-.5029297-.3007812.2705078-.5634766.5419922-.8642578.8134766-1.0878906.9296875-3.0029297,2.2851562-4.5419922,3.2929688-1.5380859.96875-2.3642578,1.4335938-3.265625,1.8984375-.9003906.4648438-1.7265625.8134766-2.7773438,1.1230469-.4501953.1552734-.6376953-.4257812-.1875-.6191406Z"/>
        <path class="cls-1" d="m183.7259121,181.5936234c-.0751953.4648438-.6005859.6201172-1.3886719.4648438-.7509766-.1162109-2.890625-.3867188-4.2421875-.5029297-1.3505859-.1162109-4.3164062-.2714844-5.7050781-.1943359-1.3515625.1162109-4.0917969.1943359-5.8554688.3876953-1.3896484.1552734-3.0029297.5419922-4.3173828.5810547-1.3505859,0-2.6269531-.4257812-3.3779297-1.0068359s-1.0507812-1.4726562-.6386719-1.7822266c.6386719-.5039062,1.7275391-.0390625,2.6660156.2324219.8632812.2705078,2.6269531.4648438,4.0908203.4257812,1.5390625-.0771484,4.7294922-.2324219,6.34375-.2714844,1.5771484-.0771484,5.96875-.2324219,7.4697266-.2705078,1.5390625,0,3.078125.0380859,3.8662109.3867188.7880859.3496094,1.1640625,1.0078125,1.0888672,1.5498047Z"/>
        <path class="cls-1" d="m214.9231778,172.915889c.4873047.4257812.6757812.8134766.6005859,1.1235352s-.4501953.6586914-.9765625,1.0073242c-.6005859.3095703-1.0126953,1.4335938-1.4638672,2.4404297-.6005859,1.3564453-1.6132812,3.0605469-3.1523438,5.2304688-1.5019531,2.1308594-2.6279297,3.4482422-4.0546875,4.8037109-1.4257812,1.3564453-3.265625,2.828125-5.4804688,3.9521484-2.1767578,1.1621094-3.3398438,1.7822266-5.7421875,2.6337891-.4511719.1552734-.7890625.0390625-.8642578-.2324219-.0371094-.2324219.2626953-.3867188.5634766-.5029297,1.8017578-.6591797,2.8525391-1.2402344,4.5419922-2.3251953,1.6513672-1.0849609,3.4160156-2.6337891,4.5791016-3.71875,1.6142578-1.4335938,3.0410156-3.2158203,4.1289062-4.8818359,1.1269531-1.6660156,1.8398438-3.0214844,2.5527344-4.6103516.7128906-1.6660156.8632812-2.7119141.9765625-3.1376953.1123047-.4267578,0-.8525391-.1132812-.96875-.1503906-.0776367-.6376953-.0776367-.8251953-.0776367h-3.2285156c-.5253906.0390625-1.3134766.0390625-1.8388672.0390625-.3378906.7358398-.7890625,1.5102539-1.2011719,2.2084961-1.1640625,1.8974609-2.328125,3.2148438-3.8671875,4.5712891-1.5380859,1.3554688-2.7773438,2.0917969-4.6162109,2.8671875-.3007812.1162109-.6757812.1162109-.7880859-.1162109-.1132812-.2714844.2246094-.5039062.4873047-.6591797,1.5019531-.8525391,2.703125-1.7431641,3.9042969-2.9443359,1.1259766-1.1621094,2.3642578-2.828125,3.1152344-4.1455078.7509766-1.2783203,1.2763672-2.5180664,1.6142578-3.5253906.375-.96875.375-1.6269531.3378906-2.0532227-.0380859-.3876953-.4130859-.8134766-.7509766-1.1235352s-.5634766-.8525391-.2998047-1.1235352c.2998047-.3486328.9375-.1547852,1.6132812.0776367.6757812.2709961,1.4267578.6582031,1.8017578,1.0844727.4130859.4648438.3007812,1.1625977,0,2.0532227-.0751953.3100586-.3378906.7749023-.6005859,1.3950195.2626953.0385742.6386719.1162109.9765625.1547852.75.0776367,1.6884766.0776367,2.5898438,0,.9003906-.0771484,1.4638672-.387207,2.0273438-.7358398.5253906-.3100586,1.0878906-.3100586,1.8007812.0385742.7509766.3486328,1.2392578.7749023,1.6523438,1.2011719Z"/>
        <path class="cls-1" d="m225.6761075,188.2225297c-.2167969-.5097656.03125-1.2441406.3095703-1.8183594.3085938-.5742188.5869141-1.1806641.9882812-2.0097656.4335938-.7978516,1.2373047-3.2861328,1.6699219-4.4990234.2167969-.5107422.4013672-1.1484375.6181641-1.7871094-.1240234-.03125-.2783203-.03125-.4013672-.03125-.6806641-.1279297-1.2060547-.3515625-1.7939453-.734375-.4628906-.3183594-.7412109-.7011719-.5869141-.9248047.1542969-.1914062.6494141,0,.8964844.1279297.3710938.1591797.7109375.2871094,1.3603516.4140625.2470703.0644531.5253906.0957031.9277344.0957031.1230469-.4140625.2783203-.7333984.3701172-.9892578.4023438-.796875.5263672-1.3076172.5878906-1.8505859.0927734-.5419922-.1855469-1.1801758-.3710938-1.5629883-.2167969-.3828125-.1855469-.605957.03125-.7973633.2470703-.2236328.8652344,0,1.1435547.2231445.2783203.2553711.6181641.5102539.8349609,1.1806641.0927734.2871094.0927734.5742188.0615234.925293.1855469.0634766.3398438.1269531.5253906.1914062.4326172.1591797,1.0820312.4462891,1.7314453.6376953s1.0507812.3828125,1.2675781.6386719c.2470703.2548828.3085938.6699219.0615234.9892578-.2470703.3183594-.7724609.5742188-1.7314453.8613281-.9892578.2871094-2.1015625.5097656-3.1835938.5742188h-.0927734c0,.0634766-.03125.1269531-.0615234.1591797-.1552734.4150391-.9277344,2.4892578-1.2988281,3.4462891-.3398438.9248047-1.1748047,3.0947266-1.484375,3.9882812-.3398438.8925781-.4013672,2.5839844-.4326172,3.1582031-.0302734.5742188-.5253906.6699219-.9580078.4472656-.4023438-.1914062-.7724609-.5429688-.9892578-1.0537109Zm5.78125-11.4541016c.5556641-.1269531,1.0507812-.3183594,1.5761719-.5419922.4638672-.1914062.6806641-.4472656.6494141-.5429688-.03125-.1269531-.3398438-.2871094-.5878906-.4462891-.1855469-.0957031-.5556641-.2871094-.8652344-.4785156-.0615234.2871094-.1855469.5742188-.2783203.8613281-.1230469.3193359-.2783203.734375-.4941406,1.1484375Zm7.4501953,11.1357422c-.0625-.5742188-.1855469-1.0849609-.2783203-1.5322266-.1542969-.8925781-.4023438-2.1054688-.5566406-2.9345703-.1855469-.8300781-.03125-1.6279297.2167969-2.1064453.2158203-.4462891.6181641-.796875.8037109-.6699219.2470703.1279297.0927734.4472656-.0625,1.0214844-.1542969.6054688-.2158203,1.53125-.0302734,2.4882812s.5253906,2.3925781.8037109,3.4775391c.0615234.1601562.0927734.3193359.1542969.4785156,1.2060547.3193359,2.0712891.734375,2.3808594.9580078.3398438.1914062.7724609.6054688.9267578,1.1484375.1552734.5742188,0,1.1162109-.2783203,1.2119141-.3085938.0957031-.7412109-.1591797-1.4521484-.5742188-.3408203-.1914062-.7421875-.4462891-1.1748047-.7021484.0302734.2558594.0615234.4785156.0615234.6064453,0,.5429688-.1240234,2.0742188-1.3291016,2.6484375-1.5146484.7021484-3.5244141.4150391-4.4824219-.0957031-.9589844-.5107422-1.6386719-1.5957031-1.4228516-3.1591797.1855469-1.2753906,1.2988281-2.1376953,2.9375-2.3291016,1.0507812-.0957031,1.8857422-.0634766,2.7822266.0644531Zm-.03125,1.4990234c-.8349609-.3505859-1.6074219-.5742188-2.8134766-.5097656-.9580078.03125-1.8544922.6376953-1.9160156,1.4033203-.0927734.7021484.3710938,1.4042969,1.2363281,1.6914062.8964844.2871094,1.7001953.2548828,2.5351562-.0957031.8349609-.3193359,1.0195312-1.2128906,1.0820312-2.3291016v-.0644531c-.0625-.03125-.0927734-.0634766-.1240234-.0957031Zm6.3994141-10.2734375c.2167969.6699219-.1542969,1.0527344-.4326172,1.2119141-.2470703.1601562-.7734375.1601562-1.0205078.0322266s-.5869141-.2548828-.9892578-.2871094c-.3710938-.0634766-.8652344-.0322266-1.421875-.0322266-.5878906-.03125-.8349609-.1269531-.8349609-.2548828,0-.0634766.1240234-.2236328.3710938-.3193359.2470703-.1269531.7421875-.2871094,1.2675781-.3183594.4951172-.0322266.6494141-.2558594.4023438-.6064453-.2480469-.4150391-.8037109-.9570312-1.4228516-1.5-.6181641-.5419922-1.1123047-.8935547-1.421875-.9892578-.3085938-.1269531-.4326172-.3505859-.3398438-.4785156.1542969-.1914062.5869141-.1914062,1.0820312-.0634766.4638672.1279297.8349609.2871094,1.5458984.6376953.7412109.3515625,1.4833984.7666016,2.0712891,1.3085938.5869141.5107422.8964844.9570312,1.1435547,1.6591797Z"/>
        <path class="cls-1" d="m263.5530606,178.3397172c.3759766,3.7578125,1.0517578,6.7021484,2.0273438,8.7939453.6757812,1.4726562,1.1259766,2.2089844,1.4638672,2.2089844.2255859,0,.5634766-1.7050781.9765625-5.0371094l.9003906.4648438c-.1123047,1.7050781-.1503906,3.0224609-.1503906,4.0292969,0,1.5888672.3007812,2.5576172.9013672,2.7509766-.0751953.96875-.4882812,1.4726562-1.2392578,1.4726562-1.0878906,0-2.2148438-.9306641-3.453125-2.7900391-1.8017578-2.7509766-2.890625-6.6630859-3.3027344-11.7001953h-4.6171875v9.9960938c1.5390625-.3486328,3.2275391-.8525391,5.1425781-1.4726562l.1494141.8525391c-2.7392578,1.3554688-5.3300781,2.4404297-7.7324219,3.1767578-.1123047.8525391-.2246094,1.3173828-.5253906,1.3173828-.4130859,0-.9755859-1.0078125-1.5761719-2.9833984.8251953-.1162109,1.6884766-.3095703,2.5898438-.4648438v-20.9594727c.6005859.1547852,1.2382812.387207,1.9892578.6196289l.2626953.1552734c3.7910156-.6586914,6.7568359-1.5883789,8.9716797-2.7895508,1.3134766,1.0458984,1.9892578,1.7436523,1.9892578,2.1694336,0,.2324219-.1503906.3100586-.4882812.3100586s-.75-.0385742-1.2011719-.2324219c-.8632812.1938477-2.0263672.4648438-3.3779297.6972656v2.2861328c0,2.4018555.0751953,4.4936523.2626953,6.2758789h2.5527344l1.4257812-2.0146484c.7890625.8525391,1.4638672,1.5888672,1.8769531,2.2470703l-.2998047.6201172h-5.5185547Zm-.5625,15.8457031l1.5390625-1.8984375c.7128906.6201172,1.3886719,1.3173828,2.0644531,2.1308594l-.3378906.6191406h-11.3359375l-.3378906-.8515625h8.4082031Zm-5.9306641-16.5429688h4.5039062c-.0751953-1.9375-.1503906-4.0683594-.1503906-6.3925781v-2.0146484c-1.0878906.1547852-2.4765625.3100586-4.1660156.503418h-.1875v7.9038086Zm20.0439453-.2324219c3.2285156,2.3242188,4.8046875,5.3076172,4.8046875,9.0654297,0,3.2539062-1.2382812,4.9980469-3.7529297,5.1914062-.0380859-.7363281-.3759766-1.2783203-1.0888672-1.5888672-.4130859-.1542969-1.2763672-.3867188-2.4775391-.6191406v-.8916016c1.1640625.1943359,2.2519531.3105469,3.1904297.3105469.9013672,0,1.4638672-.2714844,1.7265625-.8916016.2255859-.4648438.3378906-1.2783203.3378906-2.4013672,0-2.9453125-1.4257812-5.6953125-4.2792969-8.3300781l.1503906-.3095703c1.0507812-2.4794922,1.9892578-5.269043,2.8154297-8.4462891h-5.3681641v28.0498047h-1.9511719v-30.1030273c.6376953.2714844,1.3886719.6586914,2.2138672,1.2011719h4.9931641l1.1630859-1.5883789c1.4638672,1.3173828,2.1777344,2.1308594,2.1777344,2.5180664,0,.1552734-.1132812.2714844-.3007812.3486328l-.9755859.3486328c-1.2011719,2.9833984-2.4404297,5.5786133-3.8291016,7.8256836.0751953.0390625.2255859.1162109.4501953.3105469Z"/>
        <path class="cls-1" d="m302.333334,170.9012406v-5.5791016c2.3271484.0390625,3.4902344.3100586,3.4902344.8525391,0,.2709961-.5253906.6196289-1.5009766.9682617v3.7583008h10.3222656l1.4267578-1.7822266c1.6894531,1.6269531,2.5527344,2.6733398,2.5527344,3.1767578,0,.2714844-.1503906.3876953-.4882812.4262695l-1.1259766.1938477c-.9013672,1.1621094-1.9150391,2.3632812-3.1904297,3.5253906l-.6386719-.5039062c.6757812-1.3173828,1.2392578-2.6728516,1.5771484-4.1450195h-22.1845703v.6586914c0,1.6655273-.3007812,3.0214844-.8261719,4.1064453-.4873047.9296875-1.0126953,1.3945312-1.6884766,1.3945312-.3007812,0-.6386719-.1552734-.9384766-.4648438-.2626953-.2324219-.3759766-.5039062-.3759766-.8134766,0-.3876953.2255859-.7744141.6386719-1.2392578,1.2382812-1.2792969,1.8769531-3.293457,2.0644531-5.9667969l.8632812.0776367c.1123047.5810547.1503906,1.0073242.1875,1.355957h9.8349609Zm-1.6142578,7.6708984c-3.3779297.8525391-6.6435547,1.5498047-9.8349609,2.0537109l-.4501953-.8525391c7.5820312-1.5107422,13.7382812-3.5644531,18.3925781-6.1992188,1.6894531,1.0078125,2.5527344,1.7431641,2.5527344,2.1699219,0,.1933594-.2626953.3095703-.7128906.3095703-.3378906,0-.7509766-.0771484-1.2011719-.1542969-2.2519531.8515625-4.5048828,1.5878906-6.71875,2.1689453v6.5087891l10.6601562-1.5107422,1.6513672-2.6728516c.9384766.6191406,1.9140625,1.3945312,2.9658203,2.3242188l-.3759766.7363281-14.9013672,2.0917969v6.8183594c0,.6201172.1875.96875.5625,1.1621094.4501953.1162109,2.1767578.2324219,5.1425781.2324219,2.9277344,0,4.6542969-.1162109,5.2177734-.3095703.7880859-.3095703,1.4257812-2.1699219,1.7636719-5.5791016l.9013672.4267578c-.0380859.4648438-.0380859,1.0068359-.0380859,1.5488281,0,1.5888672.1503906,2.5957031.3759766,2.9833984.1503906.3105469.4882812.4267578,1.0507812.4267578-.1123047,1.2392578-.7128906,1.8974609-1.8017578,2.0527344-1.1630859.1943359-3.4912109.3105469-6.90625.3105469-4.3173828,0-6.7949219-.1552734-7.4326172-.5429688-.6005859-.3486328-.8632812-1.0849609-.8632812-2.2470703v-6.9736328l-11.4863281,1.6269531-.4501953-.9296875,11.9365234-1.6660156v-6.3144531Z"/>
      </g>
      <g>
        <g>
          <path class="cls-1" d="m116.5891934,42.6654008h-3.3417969v-.1518555c.5644531-.5639648.390625-1.3237305-.2167969-2.9077148l-1.0634766-2.7553711h-5.3808594l-.5859375,1.6489258c-.6943359,1.9746094-.8027344,3.0375977.1083984,4.0141602v.1518555h-2.5605469v-.1518555c.9335938-.9765625,1.5625-1.9746094,2.2783203-4.0141602l3.2548828-9.1567383-.7158203-1.8657227h1.7138672l4.2314453,11.0224609c.8896484,2.1699219,1.453125,3.0375977,2.2783203,4.0141602v.1518555Zm-4.6875-5.9887695l-2.7333984-7.0952148-2.5175781,7.0952148h5.2509766Z"/>
          <path class="cls-1" d="m128.9358731,42.5135453v.1518555h-2.6904297v-.1518555c.3466797-.1953125.4335938-.5639648.3681641-1.2802734-.0644531-.7158203-.390625-4.3828125-.4990234-5.5112305-.1513672-1.6274414-.9541016-3.4716797-2.8203125-3.1030273-2.4306641.4775391-2.8857422,5.0126953-2.8857422,6.8349609v1.7792969c0,.7592773.1513672,1.0849609.4990234,1.2802734v.1518555h-2.6904297v-.1518555c.3251953-.1953125.4775391-.5209961.4775391-1.2802734v-7.3339844c0-.7592773-.0654297-.9760742-.4775391-1.0415039v-.1518555l2.0390625-.4770508h.1523438v5.3808594c.2822266-2.4301758,1.0195312-5.3808594,3.8408203-5.3808594,1.7792969,0,3.2978516,1.2148438,3.5576172,3.8188477.2177734,2.1044922.4345703,4.3828125.5214844,5.1855469.0869141.78125.2822266,1.0849609.6074219,1.2802734Z"/>
          <path class="cls-1" d="m138.5696621,38.8680375c-.4121094,2.0400391-1.3232422,3.9277344-3.6015625,3.9277344-1.9316406,0-3.125-1.2587891-3.125-3.8188477v-6.574707h-1.2792969v-.1733398c1.84375,0,1.9960938-1.9311523,1.9960938-2.9726562h1.7138672c0,1.6704102-1.6494141,2.9072266-2.9511719,2.9726562h4.7958984v.1733398h-2.5605469v6.8999023c0,1.8876953.5205078,3.3417969,2.3652344,3.1030273,1.4316406-.1953125,2.1474609-1.909668,2.5380859-3.5800781l.1083984.0429688Z"/>
          <path class="cls-1" d="m142.2376309,42.5135453v.1518555h-2.6904297v-.1518555c.3251953-.1953125.4775391-.5209961.4775391-1.2802734v-7.3339844c0-.7592773-.0654297-.9760742-.4775391-1.0415039v-.1518555l2.0390625-.4770508h.1523438v9.0043945c0,.7592773.1513672,1.0849609.4990234,1.2802734Zm-2.4306641-13.0620117c0-.5644531.4560547-1.0200195,1.0205078-1.0200195.5634766,0,1.0195312.4555664,1.0195312,1.0200195,0,.5639648-.4560547,1.0195312-1.0195312,1.0195312-.5644531,0-1.0205078-.4555664-1.0205078-1.0195312Z"/>
          <path class="cls-1" d="m155.0813809,47.3738968v.1518555l-2.0390625.4775391h-.1738281v-11.152832c-.390625,2.5166016-1.4970703,5.9453125-4.5351562,5.9453125-1.7792969,0-3.9482422-1.519043-4.0136719-4.2963867-.1523438-5.359375,4.8388672-6.2705078,7.2685547-6.2705078,1.1289062,0,1.9746094.4770508,2.4091797.4555664.3037109-.0219727.4121094-.3037109.4550781-.4555664h.1298828v14.1035156c0,.7592773.0654297.9765625.4990234,1.0415039Zm-2.2128906-14.8413086c-.1083984-.0219727-.6074219-.1953125-1.3017578-.1953125-2.0830078.043457-5.8798828.9545898-5.5761719,6.487793.1083984,1.8876953,1.453125,3.9272461,3.2978516,3.5800781,2.4521484-.4775391,3.5800781-5.012207,3.5800781-6.8349609v-3.0375977Z"/>
          <path class="cls-1" d="m167.255209,42.6654008h-2.2138672v-5.2724609c-.28125,2.4516602-1.0195312,5.402832-3.8398438,5.402832-1.9960938,0-3.5800781-1.2587891-3.5800781-3.8188477v-5.0776367c0-.7592773-.0654297-.9760742-.4775391-1.0415039v-.1518555l2.0390625-.4770508h.1523438v7.0732422c0,1.8876953.9765625,3.4501953,2.8417969,3.1030273,2.4306641-.4775391,2.8642578-5.012207,2.8642578-6.8349609v-1.6708984c0-.7592773-.0644531-.9760742-.4765625-1.0415039v-.1518555l2.0390625-.4770508h.1523438v9.0043945c0,.7592773.1513672,1.0849609.4990234,1.2802734v.1518555Z"/>
          <path class="cls-1" d="m179.8831387,39.2152054c-.1298828,1.5405273-1.4970703,3.5805664-4.578125,3.5805664-2.9941406,0-5.8798828-1.4755859-5.9667969-5.0556641-.1083984-3.7539062,3.2978516-5.3813477,5.6845703-5.5112305,1.8447266-.0869141,4.3828125.8027344,4.6875,3.4282227h-2.0185547c1.2373047.3251953,2.3652344,1.5839844,2.1914062,3.5581055Zm-3.0810547-3.5581055h-5.6191406c-.2822266,1.1499023-.2177734,2.4301758.1513672,3.4716797.8027344,2.2783203,2.4306641,3.2763672,4.6435547,3.1894531,1.8662109-.0869141,3.4931641-1.3671875,3.7099609-3.0595703.2607422-2.2563477-1.2363281-3.6015625-2.8857422-3.6015625Zm-5.5761719-.1738281h6.921875c-.2822266-1.8876953-1.9746094-3.40625-4.1015625-2.9941406-1.4746094.2822266-2.4296875,1.5185547-2.8203125,2.9941406Z"/>
          <path class="cls-1" d="m198.5227871,29.2996781l-.6513672,2.2563477h-.1513672c-1.2373047-2.9077148-2.8212891-4.0141602-4.5351562-4.0141602-2.1484375,0-3.3847656,1.215332-3.5146484,2.5170898-.4130859,4.3393555,8.8955078,2.9072266,8.8955078,8.3320312,0,2.5820312-2.3212891,4.4047852-5.4023438,4.4047852-2.5820312,0-4.1875-.8681641-5.8798828-2.1484375l.6503906-2.4736328h.1523438c1.1064453,2.2133789,3.1240234,4.1879883,5.9667969,4.1879883,1.84375,0,3.3847656-1.1933594,3.5585938-2.5605469.5634766-4.621582-8.7666016-3.1459961-8.7666016-8.5922852,0-1.7573242,1.4111328-3.9492188,4.9042969-3.9492188,1.6708984,0,3.4931641,1.0415039,4.7734375,2.0400391Z"/>
          <path class="cls-1" d="m208.4173184,38.8680375c-.4121094,2.0400391-1.3232422,3.9277344-3.6015625,3.9277344-1.9316406,0-3.125-1.2587891-3.125-3.8188477v-6.574707h-1.2792969v-.1733398c1.84375,0,1.9960938-1.9311523,1.9960938-2.9726562h1.7138672c0,1.6704102-1.6494141,2.9072266-2.9511719,2.9726562h4.7958984v.1733398h-2.5605469v6.8999023c0,1.8876953.5205078,3.3417969,2.3652344,3.1030273,1.4316406-.1953125,2.1474609-1.909668,2.5380859-3.5800781l.1083984.0429688Z"/>
          <path class="cls-1" d="m217.074545,36.4163773s-1.7353516,4.3178711-2.5166016,6.2490234c-.78125,1.9526367-1.7578125,3.5800781-3.4716797,3.5800781-1.171875,0-2.0185547-.5424805-2.5605469-1.5405273l1.6923828-1.5405273.1298828.1083984c-.2167969,1.215332.0224609,2.8857422,1.2158203,2.7558594,1.1279297-.1303711,2.0175781-1.5625,2.7333984-3.1679688l-2.7773438-6.53125c-.9111328-2.1264648-1.3671875-3.059082-2.4082031-3.9272461v-.1733398h3.3193359v.1733398c-.5419922.5859375-.3681641,1.171875.1308594,2.3867188l2.5820312,6.0322266,1.7792969-4.4262695c.8027344-1.996582,1.0625-3.1899414.0869141-3.9926758v-.1733398h2.5595703v.1733398c-.9326172.9545898-1.6923828,2.0180664-2.4951172,4.0141602Z"/>
          <path class="cls-1" d="m223.8675137,42.5135453v.1518555h-2.6689453v-.1518555c.3251953-.1953125.4775391-.5209961.4775391-1.2802734v-12.5415039c0-.7592773-.0654297-.9760742-.4775391-1.0415039v-.1733398l2.0390625-.4555664h.1523438v14.2119141c0,.7592773.1513672,1.0849609.4775391,1.2802734Z"/>
          <path class="cls-1" d="m236.4944668,39.2152054c-.1298828,1.5405273-1.4970703,3.5805664-4.578125,3.5805664-2.9941406,0-5.8798828-1.4755859-5.9667969-5.0556641-.1083984-3.7539062,3.2978516-5.3813477,5.6845703-5.5112305,1.8447266-.0869141,4.3828125.8027344,4.6875,3.4282227h-2.0185547c1.2373047.3251953,2.3652344,1.5839844,2.1914062,3.5581055Zm-3.0810547-3.5581055h-5.6191406c-.2822266,1.1499023-.2177734,2.4301758.1513672,3.4716797.8027344,2.2783203,2.4306641,3.2763672,4.6435547,3.1894531,1.8662109-.0869141,3.4931641-1.3671875,3.7099609-3.0595703.2607422-2.2563477-1.2363281-3.6015625-2.8857422-3.6015625Zm-5.5761719-.1738281h6.921875c-.2822266-1.8876953-1.9746094-3.40625-4.1015625-2.9941406-1.4746094.2822266-2.4296875,1.5185547-2.8203125,2.9941406Z"/>
        </g>
        <g>
          <g>
            <g>
              <path class="cls-1" d="m213.4081719,17.8195234c.5264026-.0459097,1.0130959-.6493507,1.0136041-.6522053-.002016-.001008-.4872015-.6073883-1.0136041-.6532979-.5604706-.0469176-.981281.494088-2.1111247.6532979,1.1288357.1581173,1.550654.7010457,2.1111247.6522053Z"/>
              <rect class="cls-1" x="182.6268249" y="17.0676976" width="21.4492247" height=".1981485"/>
              <rect class="cls-1" x="209.9232849" y="16.8317605" width=".670108" height=".6701073" transform="translate(49.1663995 153.3749478) rotate(-44.8831704)"/>
              <path class="cls-1" d="m210.7326379,17.1673182c0-.1572025.1259721-.2841825.2822428-.2841825.1556948,0,.2821666.12698.2821666.2841825,0,.1552628-.1264718.2831745-.2821666.2831745-.1562707,0-.2822428-.1279118-.2822428-.2831745Z"/>
              <path class="cls-1" d="m209.2210918,17.1673182c0-.1572025.1249725-.2841825.2812433-.2841825.1566943,0,.2821666.12698.2821666.2841825,0,.1552628-.1254723.2831745-.2821666.2831745-.1562707,0-.2812433-.1279118-.2812433-.2831745Z"/>
              <path class="cls-1" d="m205.2000149,17.0676976h-1.3718859v.1981485h1.3718859c3.0037034,0,2.7483119.4151098,4.0210769-.0985279-1.272765-.5155689-1.0173734-.0996206-4.0210769-.0996206Z"/>
            </g>
            <g>
              <path class="cls-1" d="m127.6397166,17.8195234c-.5258097-.0459097-1.0125961-.6493507-1.0135956-.6522053.0020075-.001008.487786-.6073883,1.0135956-.6532979.5604706-.0469176.9813657.494088,2.1111247.6532979-1.1288357.1581173-1.550654.7010457-2.1111247.6522053Z"/>
              <rect class="cls-1" x="136.9723386" y="17.0676976" width="21.4488097" height=".1981485"/>
              <rect class="cls-1" x="130.4545467" y="16.8317601" width=".6701073" height=".6701081" transform="translate(26.3398484 97.7327399) rotate(-45.1219428)"/>
              <path class="cls-1" d="m130.3152591,17.1673182c0-.1572025-.1254723-.2841825-.2822513-.2841825-.1561945,0-.2821666.12698-.2821666.2841825,0,.1552628.1259721.2831745.2821666.2831745.156779,0,.2822513-.1279118.2822513-.2831745Z"/>
              <path class="cls-1" d="m131.8267967,17.1673182c0-.1572025-.1249641-.2841825-.2812433-.2841825-.156186,0-.2821581.12698-.2821581.2841825,0,.1552628.1259721.2831745.2821581.2831745.1562792,0,.2812433-.1279118.2812433-.2831745Z"/>
              <path class="cls-1" d="m135.8479583,17.0676976h1.3714708v.1981485h-1.3714708c-3.0036187,0-2.7478036.4151098-4.0211616-.0985279,1.273358-.5155689,1.0175429-.0996206,4.0211616-.0996206Z"/>
            </g>
          </g>
          <g>
            <g>
              <path class="cls-1" d="m170.2940232,3.7165144c.1230413.3806945.1923632.8025975.2299634,1.2224084.0365922-.4198109.1074303-.8417139.2290401-1.2224084.4061311-1.2714267,1.5535086-1.7000468,2.0153666-1.2381972.4520323.4540568-1.7478877.9588852-2.2381132,3.8696682-.0018466.0127649-.0038625.0205662-.0062935.031222-.0015077-.0106558-.0038625-.018457-.0048705-.031222-.4926565-2.910783-2.692153-3.4156114-2.240451-3.8696682.4636961-.4618495,1.6086425-.0332295,2.0153581,1.2381972Z"/>
              <path class="cls-1" d="m170.0093409.6005187c-.621483-.4022686-1.0950895.3602977-.5961396.9598847.4345748.5185082,1.0307228,1.1521632,1.1117085,2.2810751.0810788-1.1289119.6782264-1.7606442,1.1102855-2.2810751.4994582-.599587.0254282-1.3621533-.5946318-.9598847.028791-.2402041-.1377205-.6025263-.5156536-.6005103-.3802794,0-.5492219.3603062-.5155689.6005103Zm.5146457.5975626c.2631166.0049552.5384814.1924479.496519.5546853-.0483407.4159399-.4004221.6620225-.496519,1.5515773-.0952583-.8895548-.4497707-1.1356374-.4975269-1.5515773-.0419625-.3622374.2344104-.5497301.4975269-.5546853Z"/>
              <path class="cls-1" d="m166.7280111,6.3382528c1.1961416,1.1668509,2.735962,1.4432237,3.7968988,1.7029013-.2582461-1.0594206-.5365502-2.6022734-1.7014698-3.797407-.930594-.9540063-1.8728518-.8866156-2.4597671-.3623221-.5232855.5859073-.5906846,1.5281651.3643381,2.4568278Zm.3749007-.3905964c-.624922-.6590917-.3808639-1.1990809-.12698-1.4539727.2548918-.2558998.7968122-.4980267,1.4544724.1249725,1.1849776,1.12488,1.7151496,2.3991612,2.0687387,3.3972306-.9960534-.3535891-2.2704193-.8837611-3.3962311-2.0682305Z"/>
              <path class="cls-1" d="m172.2254564,4.2437471c-1.1649197,1.1951336-1.443139,2.7379864-1.7005466,3.797407,1.0590056-.2596776,2.5998424-.5360504,3.7960687-1.7029013.953498-.9286628.8876151-1.8709205.3637367-2.4568278-.5873219-.5242935-1.5286648-.5916841-2.4592588.3623221Zm.3935441.3749092c.656144-.6229993,1.1975647-.3808724,1.4519567-.1249725.2568993.2548918.499958.794881-.1269038,1.4539727-1.1248885,1.1844694-2.3982464,1.7146413-3.3937154,2.0682305.3525049-.9980694.8831766-2.2723506,2.0686625-3.3972306Z"/>
            </g>
            <path class="cls-1" d="m170.8544938,8.6759019c0,.1835455-.1478766.3310917-.3305072.3310917-.1821225,0-.3305072-.1475462-.3305072-.3310917,0-.1806994.1483848-.3290842.3305072-.3290842.1826307,0,.3305072.1483848.3305072.3290842Z"/>
            <g>
              <g>
                <path class="cls-1" d="m180.3652995,19.0880109c-7.3323666-1.3689551-8.4938473-8.1418591-14.4878201-9.8868075,5.4672398.9950539,7.2752167,7.6037927,14.4702778,9.0206649,7.3879326,1.4539727,11.2878994-3.7477196,11.9851758-6.3196943.7518258-2.7878348-.6762951-4.8521265-2.7034102-4.7935451-2.4303832.0694066-3.3906914,3.6285408-1.2191388,4.4780644,1.3514976.5322726,2.4275371-1.0203974,1.5350431-1.7927047-.9237076-.7958043-.6239141.9822974-.9931142.818217-.9754957-.4296281-.0428857-1.6715947.8466606-1.26648,1.7546895.7958127.7157419,3.7496593-1.7039855,2.9869998-2.6813363-.8436452-1.8805768-5.3412593,1.5442758-5.3880923,2.1311826-.0292907,3.7169211,2.3963152,2.8903947,5.0893067-1.2484295,4.0729497-6.3172632,8.1457216-12.164359,7.054071Z"/>
                <path class="cls-1" d="m199.7735686,10.8963796c3.3170835.4189723,4.8618675,3.3082743,4.2900635,5.9125636-1.0925738,4.9789456-7.0207484,4.408734-7.2594363,1.0506961-.1201021-1.6541371,1.2947542-2.4304764,2.2184703-2.2674039.5419204.0946739.8749518.4228348,1.0057944.6933291.2558066.5467147.0590812,1.0536353-.2807435,1.2849455-.2318946.1631487-.7347918.2363331-1.0057097-.1552712-.0141795-.0116638-.0439784-.0858562-.0522879-.1102848-.0195497-.0673906-.0219892-.1405751.0033628-.2157754.0615969-.1885007.2652088-.2909758.453125-.2304631.1909317.0615206.2924073.2655476.2308867.4540483-.0429704.1309273-.149901.2119214-.2699099.2353336.21863.0244202.4144321-.0712532.503812-.1445223.2728576-.2245931.3608144-.636679.2056279-.977427-.1728897-.3827951-.6147745-.5858141-1.0077256-.6151048-.8701661-.0567433-2.0652997.6726783-1.9305099,2.1266509.2802353,3.0094887,6.158553,3.6432285,6.7625023-1.271342.2777958-2.2605174-1.0872883-4.8354314-3.9312735-5.1040029-5.7772741-.5458676-7.589105,7.2072331-15.1327238,7.7902012,7.7901927-1.1864091,9.4238568-9.183568,15.1966755-8.4561709Z"/>
                <path class="cls-1" d="m186.0443761,15.3080614c-1.2507843-4.0709338-6.3196095-8.1437056-12.1627665-7.0491158-7.3332899,1.3690313-8.4967865,8.1389198-14.489836,9.8848763,5.4663166-.9951386,7.2756402-7.6048007,14.4702016-9.0206734,7.3890168-1.452033,11.2885686,3.7476433,11.985252,6.3197027.7518258,2.7838876-.6757022,4.7680322-2.7033255,4.7934604-2.7092717.0331532-3.4039476-3.6607707-1.219215-4.4780644,1.5994945-.5985706,2.5856544,1.4987897,1.5486381,1.9548539-.4208188.1846382-.8064685.0039472-.9305093-.2948383.0459097.0234122.0859409.0595047.141583.0595047.1953024,0,.3524964-.158202.3524964-.3524964,0-.1953024-.157194-.3534197-.3524964-.3534197-.0976893.0116638-.2021804.0497637-.2665556.1444376-.2538838.3759934.0986211,1.1816233.9042425,1.0146036,1.6990388-.3515732.7079321-3.6803289-1.7127185-2.9196854-2.682844.8437299-2.1370611,5.3930474,1.5462071,5.3901929,2.1282434-.002016,3.7139819-2.3963152,2.8888022-5.0933386Z"/>
              </g>
              <g>
                <path class="cls-1" d="m160.6826737,19.0880109c7.3322904-1.3689551,8.4952788-8.1418591,14.4878201-9.8868075-5.4663166.9950539-7.2756318,7.6037927-14.4693546,9.0206649-7.3888558,1.4539727-11.2889074-3.7477196-11.9865988-6.3196943-.7513261-2.7878348.6762104-4.8521265,2.704325-4.7935451,2.4304764.0694066,3.3902764,3.6285408,1.2191388,4.4780644-1.3503964.5322726-2.4280369-1.0203974-1.5355428-1.7927047.9237076-.7958043.6240072.9822974.9931226.818217.9759955-.4296281.0428857-1.6715947-.8470926-1.26648-1.7542575.7958127-.7142257,3.7496593,1.7044175,2.9869998,2.6823358-.8436452,1.8807378-5.3412593-1.544784-5.3880923-2.1296749-.0292907-3.7169211,2.3963152-2.8888869,5.0893067,1.2475062,4.0729497,6.3162553,8.1457216,12.1634357,7.054071Z"/>
                <path class="cls-1" d="m141.2743199,10.8963796c-3.3160755.4189723-4.8607748,3.3082743-4.2895553,5.9125636,1.0925738,4.9789456,7.0198167,4.408734,7.2590128,1.0506961.1201868-1.6541371-1.2948389-2.4304764-2.2185465-2.2674039-.5419289.0946739-.8748671.4228348-1.0063026.6933291-.2557304.5467147-.0580732,1.0536353.2818362,1.2849455.2313864.1631487.7357066.2363331,1.0057097-.1552712.0141795-.0116638.0429704-.0858562.0522794-.1102848.0184655-.0673906.0219892-.1405751-.003439-.2157754-.0610971-.1885007-.2646243-.2909758-.4540483-.2304631-.189424.0615206-.2919838.2655476-.2294636.4540483.0424707.1309273.1493928.2119214.2684868.2353336-.2167834.0244202-.4144321-.0712532-.5028972-.1445223-.2733489-.2245931-.361221-.636679-.2060429-.977427.1738977-.3827951.615198-.5858141,1.0073106-.6151048.8699966-.0567433,2.066223.6726783,1.930925,2.1266509-.28032,3.0094887-6.1586377,3.6432285-6.7620788-1.271342-.2772961-2.2605174,1.0877965-4.8354314,3.9313582-5.1040029,5.7776891-.5458676,7.5890203,7.2072331,15.1332236,7.7902012-7.7902774-1.1864091-9.4247801-9.183568-15.1977682-8.4561709Z"/>
                <path class="cls-1" d="m155.0035209,15.3080614c1.2508605-4.0709338,6.3196943-8.1437056,12.1638508-7.0491158,7.3327901,1.3690313,8.4952788,8.1389198,14.4884045,9.8848763-5.4648851-.9951386-7.2752167-7.6048007-14.4698543-9.0206734-7.3889405-1.452033-11.2889921,3.7476433-11.9852605,6.3197027-.7513176,2.7838876.6767949,4.7680322,2.7029867,4.7934604,2.709619.0331532,3.4058874-3.6607707,1.2200621-4.4780644-1.5994182-.5985706-2.5861542,1.4987897-1.5491378,1.9548539.4208104.1846382.8075527.0039472.9315088-.2948383-.0469092.0234122-.0868641.0595047-.142591.0595047-.1937862,0-.3524964-.158202-.3524964-.3524964,0-.1953024.1587102-.3534197.3524964-.3534197.0976978.0116638.2026886.0497637.2665556.1444376.2538838.3759934-.0986126,1.1816233-.9041578,1.0146036-1.6990388-.3515732-.7079321-3.6803289,1.7117953-2.9196854,2.6842755.8437299,2.1384079,5.3930474-1.5438523,5.3901929-2.1296749-.002016-3.7154049-2.3963152-2.89031-5.0933386Z"/>
              </g>
            </g>
          </g>
        </g>
      </g>
      <g>
        <g>
          <path class="cls-1" d="m170.9893559,257.5813708c-.2507423-.7758061-.3920113-1.63559-.4686356-2.4911103-.0745702.8555203-.2189291,1.7153042-.4667541,2.4911103-.8276428,2.5910033-3.1658497,3.4644756-4.1070566,2.523286-.9211835-.925309,3.5619693-1.9540841,4.5609854-7.8858836.003763-.0260133.0078713-.0419112.0128254-.0636263.0030726.0217151.0078713.0376131.0099254.0636263,1.0039702,5.9317994,5.4862598,6.9605746,4.5657496,7.8858836-.9449527.9411897-3.2782055.0677173-4.1070393-2.523286Z"/>
          <path class="cls-1" d="m171.5695016,263.9313674c1.2665021.8197715,2.2316509-.7342402,1.2148554-1.956121-.8856073-1.0566526-2.1004799-2.3479597-2.2655182-4.6485363-.1652282,2.3005766-1.3821377,3.5879652-2.2626183,4.6485363-1.0178313,1.2218808-.0518194,2.7758925,1.2117828,1.956121-.0586722.4895049.2806566,1.2278706,1.0508355,1.2237624.7749603,0,1.1192433-.7342574,1.0506629-1.2237624Zm-1.0487813-1.2177553c-.5361976-.010098-1.0973555-.3921839-1.0118415-1.130377.098512-.8476317.8160084-1.3491162,1.0118415-3.161914.1941241,1.8127978.9165746,2.3142823,1.0138956,3.161914.0855141.7381931-.477698,1.120279-1.0138956,1.130377Z"/>
        </g>
        <path class="cls-1" d="m293.9066196,245.2241204c-.0207972-.0047472-.0755932.1185438-.1621275.361509-.0803856.2444119-.2190936.6018519-.4195602,1.0582593-.2032697.4557744-.4916269,1.0020165-.8867731,1.6115543-.405816.6025753-.9262877,1.2629757-1.5954139,1.9259532-1.3302952,1.3288033-3.2756441,2.6594602-5.8223023,3.4994397-2.5367117.8669706-5.6081819,1.2437157-9.007976,1.2632018-3.4041344.0144676-7.1379491-.2250615-11.0990858-.8479818-.9920248-.1412851-1.9945386-.3304489-3.0148657-.5096662-1.0163485-.2038574-2.0507814-.3991247-3.0929907-.638473-2.0877642-.4591653-4.2247182-.9914371-6.4024528-1.5946905-4.359086-1.1938025-8.8822888-2.6486547-13.5737677-4.1799591-4.693197-1.5242062-9.5577445-3.1260401-14.6280936-4.5118547-5.0681789-1.3849104-10.1076035-2.4732804-15.0531696-3.0462423-4.9416779-.5855759-9.7786466-.6048358-14.3344015-.0992839-2.2789173.2510128-4.4807946.676134-6.5882709,1.2071851-2.1110932.522461-4.1125944,1.2202511-5.9941049,2.0125779-.4671224.2065249-.938766.3919362-1.3903358.6111202-.4497613.2227557-.8956345.4436126-1.3373482.6622993-.8803531.4427988-1.7191118.9248409-2.5267652,1.413077-1.6176578.9754775-3.1117986,1.987983-4.5325163,2.9489929l.0579608.087122c-.7326028.2114529-1.3908783.4872866-1.9931823.8103661-.5966074-.3200503-1.2472874-.5944825-1.9716618-.8051668l.0613969-.0923213c-1.4207177-.9610099-2.9148584-1.9735154-4.5324259-2.9489929-.807563-.4882361-1.6463217-.9702782-2.5268557-1.413077-.4416233-.2186867-.887406-.4395436-1.3373482-.6622993-.4513889-.219184-.9231229-.4045953-1.3902453-.6111202-1.8815106-.7923268-3.8830117-1.4901169-5.9941049-2.0125779-2.1074763-.5310511-4.3094441-.9561723-6.5882709-1.2071851-4.5556644-.505552-9.3927235-.486292-14.3344015.0992839-4.9456565.5729619-9.9849002,1.6613319-15.05326,3.0462423-5.0701682,1.3858146-9.9347158,2.9876485-14.6280032,4.5118547-4.691479,1.5313044-9.2147721,2.9861566-13.5738581,4.1799591-2.1775537.6032534-4.3145981,1.1355253-6.4024528,1.5946905-1.0422093.2393483-2.0766422.4346156-3.0929003.638473-1.020327.1792173-2.0228409.3683811-3.0149561.5096662-3.9610463.6229203-7.6947706.8624494-11.0989954.8479818-3.3997037-.019486-6.4711738-.3962312-9.0078856-1.2632018-2.546839-.8399795-4.4920974-2.1706364-5.8224831-3.4994397-.6690358-.6629775-1.1895979-1.3233779-1.5953235-1.9259532-.3951462-.6095378-.6835034-1.1557799-.8867731-1.6115543-.2004666-.4564074-.3390842-.8138474-.4195602-1.0582593-.0864439-.2429652-.1413303-.3662562-.1622179-.361509-.0207972.0047472-.0072338.137623.0399667.3947845.0411422.2586534.1425058.6350822.310149,1.1182998.1705368.4824038.4309534,1.062916.8062067,1.7138673.3855614.6436271.8942781,1.351861,1.5614151,2.0661532,1.3211626,1.4289461,3.318866,2.8831202,5.9393089,3.817365,1.303711.4764812,2.7484811.8338307,4.2958807,1.0768863,1.5483038.2406142,3.1985137.3668439,4.9261252.4085739,3.4535955.071479,7.2469986-.1213469,11.2636547-.7075558,1.0064924-.1321524,2.0221175-.3126357,3.0563696-.4838958,1.0293693-.1956742,2.0776369-.3836173,3.1320532-.6158222,2.1129921-.4450594,4.2735463-.9653502,6.470993-1.5577077,4.3992336-1.172282,8.9516428-2.611265,13.6489992-4.127062,4.6997074-1.5090605,9.5506916-3.0967884,14.5808931-4.4715263,5.0274888-1.3738789,10.0057878-2.4561905,14.8675323-3.0357985,4.859936-.5925836,9.6053068-.6338615,14.0676552-.1701751,2.2323497.2301252,4.3863936.6291143,6.4483874,1.1290601,2.0657915.4914913,4.0228953,1.1527507,5.8648912,1.9044779.4570855.1963072.919506.3714555,1.3616718.5799697.4407191.2118598.8774596.4217756,1.3103119.6297924.8634441.4206905,1.6884586.8808052,2.4890591,1.3502334,1.0300023.6022588,2.0052085,1.2202963,2.9598888,1.8359376-4.8631008-.4155364-8.9633977,3.0334023-10.0232394,6.4827479-.7439056,2.4317765.6858544,4.5906127,2.6060657,4.5924212,1.8473309.0014468,2.8161171-1.2678585,2.8980399-2.5252281,3.0517581-1.3620335,4.9101205-4.7177467,8.4899457-6.5834785,3.5802773,1.8657771,5.4390014,5.2217163,8.4903978,6.5836142.082194,1.2573243,1.0511611,2.5265392,2.8989441,2.5250924,1.9189455-.0018084,3.3487958-2.1606447,2.6047094-4.5924212-1.0574907-3.4420214-5.1422349-6.8851731-9.991049-6.4869978.952691-.614285,1.9258176-1.2307853,2.9533784-1.8316878.8007813-.4694282,1.6257958-.9295429,2.4891495-1.3502334.4327619-.2080169.8696832-.4179326,1.3104023-.6297924.4421658-.2085142.9044055-.3836625,1.3615814-.5799697,1.8420864-.7517271,3.7990093-1.4129866,5.8648008-1.9044779,2.0621746-.4999458,4.2161281-.8989349,6.4484778-1.1290601,4.4623484-.4636864,9.2077192-.4224085,14.0676552.1701751,4.8617445.579608,9.8401339,1.6619196,14.8675323,3.0357985,5.0301111,1.3747379,9.8810953,2.9624659,14.5808931,4.4715263,4.6973564,1.5157969,9.2496752,2.95478,13.6489088,4.127062,2.1975371.5923575,4.3580009,1.1126484,6.4711738,1.5577077,1.0543259.2322049,2.1026839.420148,3.1318724.6158222,1.0342521.1712601,2.0499676.3517434,3.05646.4838958,4.0165657.5862088,7.8101496.7790347,11.2635643.7075558,1.7276115-.04173,3.3780023-.1679597,4.9262157-.4085739,1.5473996-.2430556,2.9920792-.6004051,4.2957903-1.0768863,2.6205333-.9342449,4.6182368-2.3884189,5.9393993-3.817365.6672273-.7142922,1.1757633-1.4225262,1.5614151-2.0661532.3753436-.6509513.6355795-1.2314635.8062067-1.7138673.1677337-.4832176.2690068-.8596463.310149-1.1182998.0471101-.2571615.0607639-.3900373.0398763-.3947845Zm-131.8858612,11.2571895c.0085901-.9504757-.4877388-1.865551-1.5080658-2.1862795-2.1817131-.6858092-3.0752679,2.3155836-1.5433306,2.6325595.7262732.1505986,1.0441082-.5758102.8151585-.914804-.0575991-.0853588-.152181-.1197193-.2403429-.1302536-.1746962,0-.317835.1425962-.317835.3186488,0,.1751935.1431388.317835.317835.317835.0502749,0,.0863535-.0325069.1285807-.0536205-.1117622.2693685-.4605216.4323098-.8399342.265842-.9349682-.4112414-.0453017-2.3023367,1.3968462-1.762605.813983.304362,1.1782951,1.051568,1.160934,1.8212892-.2930592.123924-.5974212.2359122-.9192347.3296803.3197338-.0581869.6245479-.1395671.9186922-.2377206-.0666414,1.0649053-.8666993,2.1414751-2.2604711,2.1243853-1.8268954-.0229221-3.1146017-1.8119305-2.4371566-4.3220128.6278031-2.3191101,4.1443327-7.0074242,10.8064787-5.6981974.8389396.1651114,1.5938767.4109249,2.28805.7115796-3.0752679,1.9802971-4.686777,5.1676889-7.7662043,6.7836739Zm22.3042372-1.797056c.6778972,2.5100823-.6091761,4.2990907-2.4375183,4.3220128-1.3934101.0170898-2.1929255-1.0592539-2.2594765-2.1240688.293873.0980632.5984158.1792625.917788.2374042-.3215423-.0936777-.6255426-.2055755-.9183305-.3293186-.0171803-.7698568.3470414-1.5172437,1.1607531-1.8216509,1.4421478-.5397317,2.3313623,1.3513637,1.3963941,1.762605-.3794126.1664678-.7271774.0035265-.83903-.265842.0413231.0211136.077492.0536205.1275861.0536205.176143,0,.3179254-.1426414.3179254-.317835,0-.1760525-.1417824-.3186488-.3179254-.3186488-.0880715.0105342-.1822917.0448948-.2403429.1302536-.2288592.3389938.0889757,1.0654026.8154298.914804,1.5319373-.3169759.6382017-3.3183687-1.5443252-2.6325595-1.0198749.3207285-1.5158421,1.2360298-1.5069807,2.1865959-3.0796986-1.6159398-4.690846-4.8037384-7.7661139-6.7841712.6940828-.3005643,1.4489295-.5463325,2.2876883-.7113987,6.6623269-1.3092268,10.1783139,3.3790874,10.8064787,5.6981974Z"/>
        <path class="cls-1" d="m170.9480404,251.5797751c0,.2368348-.19081.4272185-.4264644.4272185-.2349986,0-.4264644-.1903837-.4264644-.4272185,0-.2331624.1914658-.4246282.4264644-.4246282.2356544,0,.4264644.1914658.4264644.4246282Z"/>
      </g>
    </g>
  </g>
</svg>