<?xml version="1.0" encoding="UTF-8"?>
<svg id="_レイヤー_2" data-name="レイヤー 2" xmlns="http://www.w3.org/2000/svg" viewBox="0 0 208.3407699 75.2142722">
  <defs>
    <style>
      .cls-1 {
        fill: #462e2e;
        stroke-width: 0px;
      }
    </style>
  </defs>
  <g id="top">
    <g>
      <g>
        <path class="cls-1" d="m20.4321289,66.8509909h-5.2353516v-.237793c.8837891-.8842773.6118164-2.0742188-.340332-4.5556641l-1.6655273-4.3173828H4.7597656l-.9179688,2.5834961c-1.0878906,3.09375-1.2578125,4.7592773.1699219,6.2895508v.237793H0v-.237793c1.4619141-1.5302734,2.4477539-3.09375,3.5698242-6.2895508l5.0996094-14.3466797-1.1220703-2.9233398h2.6855469l6.6293945,17.2700195c1.394043,3.3999023,2.277832,4.7592773,3.5698242,6.2895508v.237793Zm-7.3432617-9.3833008l-4.2836914-11.1166992-3.9433594,11.1166992h8.2270508Z"/>
        <path class="cls-1" d="m39.7783203,66.6131979v.237793h-4.2158203v-.237793c.5439453-.3061523.6801758-.8842773.578125-2.0058594-.1020508-1.1220703-.6118164-6.8671875-.7817383-8.6352539-.2382812-2.5498047-1.4960938-5.4394531-4.4199219-4.8613281-3.8076172.7475586-4.5214844,7.8530273-4.5214844,10.7084961v2.7880859c0,1.1899414.2382812,1.699707.7822266,2.0058594v.237793h-4.2158203v-.237793c.5097656-.3061523.7480469-.815918.7480469-2.0058594v-11.4912109c0-1.1894531-.1020508-1.5297852-.7480469-1.6318359v-.237793l3.1958008-.7480469h.237793v8.4311523c.4418945-3.8076172,1.5976562-8.4311523,6.0175781-8.4311523,2.7875977,0,5.1674805,1.9038086,5.5751953,5.9833984.3398438,3.2978516.6801758,6.8676758.815918,8.1254883.1362305,1.2236328.4418945,1.699707.9521484,2.0058594Z"/>
        <path class="cls-1" d="m54.8740234,60.9017722c-.6459961,3.1953125-2.0737305,6.1533203-5.6430664,6.1533203-3.0258789,0-4.8955078-1.972168-4.8955078-5.9833984v-10.3012695h-2.0058594v-.2719727c2.8896484,0,3.1274414-3.0253906,3.1274414-4.6572266h2.6860352c0,2.6176758-2.5839844,4.5551758-4.6235352,4.6572266h7.5131836v.2719727h-4.0117188v10.8110352c0,2.9575195.815918,5.2353516,3.7055664,4.8618164,2.2436523-.3061523,3.3657227-2.9921875,3.9775391-5.6098633l.1699219.0683594Z"/>
        <path class="cls-1" d="m60.6206055,66.6131979v.237793h-4.2158203v-.237793c.5097656-.3061523.7480469-.815918.7480469-2.0058594v-11.4912109c0-1.1894531-.1020626-1.5297852-.7480469-1.6318359v-.237793l3.1958008-.7480469h.237793v14.1088867c0,1.1899414.2382812,1.699707.7822266,2.0058594Zm-3.8076172-20.4663086c0-.8837891.7138672-1.5976562,1.5976562-1.5976562s1.5976562.7138672,1.5976562,1.5976562c0,.8842773-.7138672,1.5981445-1.5976562,1.5981445s-1.5976562-.7138672-1.5976562-1.5981445Z"/>
        <path class="cls-1" d="m80.7470703,74.2284323v.237793l-3.1958008.7480469h-.2719727v-17.4741211c-.6118164,3.9433594-2.3457031,9.3149414-7.1054688,9.3149414-2.7875977,0-6.1870117-2.3798828-6.2890625-6.7314453-.2382812-8.3969727,7.5810547-9.8251953,11.3886719-9.8251953,1.7680664,0,3.09375.7480469,3.7734375.7143555.4760742-.0341797.6459961-.4760742.7143555-.7143555h.2036133v22.0981445c0,1.1894531.1020508,1.5297852.7822266,1.6318359Zm-3.4677734-23.2539062c-.1699219-.0341797-.9521484-.3056641-2.0400391-.3056641-3.2636719.0678711-9.2128906,1.4956055-8.7368164,10.1645508.1699219,2.9580078,2.277832,6.1538086,5.1674805,5.6098633,3.8413086-.7480469,5.609375-7.8535156,5.609375-10.7089844v-4.7597656Z"/>
        <path class="cls-1" d="m99.8203125,66.8509909h-3.4672852v-8.2612305c-.4423828,3.8417969-1.5981445,8.465332-6.0175781,8.465332-3.1279297,0-5.609375-1.972168-5.609375-5.9833984v-7.9555664c0-1.1894531-.1020508-1.5297852-.7480469-1.6318359v-.237793l3.1958008-.7480469h.237793v11.0830078c0,2.9575195,1.5297852,5.4057617,4.4536133,4.8618164,3.8076172-.7480469,4.487793-7.8535156,4.487793-10.7089844v-2.6181641c0-1.1894531-.1020508-1.5297852-.7480469-1.6318359v-.237793l3.1953125-.7480469h.2382812v14.1088867c0,1.1899414.237793,1.699707.7817383,2.0058594v.237793Z"/>
        <path class="cls-1" d="m119.6079102,61.4457175c-.2036133,2.4135742-2.3457031,5.609375-7.1728516,5.609375-4.6918945,0-9.2133789-2.3120117-9.3491211-7.9213867-.1704102-5.8813477,5.1674805-8.4311523,8.9067383-8.6352539,2.8896484-.1357422,6.8676758,1.2583008,7.3432617,5.371582h-3.1616211c1.9379883.5097656,3.7055664,2.4819336,3.4335938,5.5756836Zm-4.8271484-5.5756836h-8.8051758c-.4418945,1.8017578-.340332,3.8076172.237793,5.4394531,1.2578125,3.5698242,3.8076172,5.1337891,7.2753906,4.9975586,2.9238281-.1362305,5.4736328-2.1416016,5.8134766-4.793457.4077148-3.5356445-1.9379883-5.6435547-4.5214844-5.6435547Zm-8.7373047-.2719727h10.8447266c-.4418945-2.9575195-3.09375-5.3374023-6.425293-4.6914062-2.3115234.4418945-3.8076172,2.3798828-4.4194336,4.6914062Z"/>
        <path class="cls-1" d="m148.8139648,45.9090964l-1.0200195,3.5356445h-.2382812c-1.9375-4.5556641-4.4194336-6.2895508-7.1049805-6.2895508-3.3657227,0-5.3037109,1.9038086-5.5078125,3.9438477-.6455078,6.7993164,13.9389648,4.5556641,13.9389648,13.0546875,0,4.0454102-3.6376953,6.9013672-8.465332,6.9013672-4.0454102,0-6.5615234-1.3598633-9.2128906-3.3657227l1.0195312-3.8754883h.2382812c1.7338867,3.4672852,4.8955078,6.5610352,9.3491211,6.5610352,2.8896484,0,5.3032227-1.8696289,5.5751953-4.0117188.8842773-7.2412109-13.734375-4.9291992-13.734375-13.4624023,0-2.7539062,2.2094727-6.1875,7.6831055-6.1875,2.6176758,0,5.4736328,1.6318359,7.4794922,3.1958008Z"/>
        <path class="cls-1" d="m164.3178711,60.9017722c-.6455078,3.1953125-2.0737305,6.1533203-5.6430664,6.1533203-3.0258789,0-4.8955078-1.972168-4.8955078-5.9833984v-10.3012695h-2.0058594v-.2719727c2.8896484,0,3.1274414-3.0253906,3.1274414-4.6572266h2.6860352c0,2.6176758-2.5839844,4.5551758-4.6235352,4.6572266h7.5131836v.2719727h-4.0117188v10.8110352c0,2.9575195.815918,5.2353516,3.7055664,4.8618164,2.2436523-.3061523,3.3657227-2.9921875,3.9775391-5.6098633l.1699219.0683594Z"/>
        <path class="cls-1" d="m177.8837891,57.0599753s-2.7197266,6.7651367-3.9433594,9.7910156c-1.2241211,3.0595703-2.7539062,5.609375-5.4394531,5.609375-1.8359375,0-3.1616211-.8500977-4.0117188-2.4135742l2.6518555-2.4140625.2041016.1699219c-.340332,1.9042969.0336914,4.5219727,1.9033203,4.3178711,1.7680664-.2041016,3.1621094-2.4477539,4.2836914-4.9633789l-4.3515625-10.2333984c-1.4277344-3.331543-2.1416016-4.793457-3.7734375-6.1533203v-.2719727h5.2016602v.2719727c-.8500977.9179688-.578125,1.8359375.2036133,3.7397461l4.0458984,9.4511719,2.7875977-6.9355469c1.2578125-3.1274414,1.6660156-4.9975586.1357422-6.2553711v-.2719727h4.0117188v.2719727c-1.4619141,1.4960938-2.6518555,3.1621094-3.909668,6.2895508Z"/>
        <path class="cls-1" d="m188.5268555,66.6131979v.237793h-4.1816406v-.237793c.5097656-.3061523.7480469-.815918.7480469-2.0058594v-19.6503906c0-1.1894531-.1020508-1.5297852-.7480469-1.6318359v-.2714844l3.1958008-.7143555h.237793v22.2680664c0,1.1899414.2382812,1.699707.7480469,2.0058594Z"/>
        <path class="cls-1" d="m208.3129883,61.4457175c-.2036133,2.4135742-2.3457031,5.609375-7.1728516,5.609375-4.6918945,0-9.2133789-2.3120117-9.3491211-7.9213867-.1704102-5.8813477,5.1674805-8.4311523,8.9067383-8.6352539,2.8896484-.1357422,6.8676758,1.2583008,7.3432617,5.371582h-3.1616211c1.9379883.5097656,3.7055664,2.4819336,3.4335938,5.5756836Zm-4.8271484-5.5756836h-8.8051758c-.4418945,1.8017578-.340332,3.8076172.237793,5.4394531,1.2578125,3.5698242,3.8076172,5.1337891,7.2753906,4.9975586,2.9238281-.1362305,5.4736328-2.1416016,5.8134766-4.793457.4077148-3.5356445-1.9379883-5.6435547-4.5214844-5.6435547Zm-8.7373047-.2719727h10.8447266c-.4418945-2.9575195-3.09375-5.3374023-6.425293-4.6914062-2.3115234.4418945-3.8076172,2.3798828-4.4194336,4.6914062Z"/>
      </g>
      <g>
        <g>
          <g>
            <path class="cls-1" d="m172.1331744,27.9209578c.8248068-.0719347,1.5873942-1.0174511,1.5881905-1.0219238-.0031588-.0015794-.7633836-.9517012-1.5881905-1.0236359-.8781872-.0735141-1.5375442.7741739-3.3078675,1.0236359,1.7687439.24775,2.4296803,1.0984506,3.3078675,1.0219238Z"/>
            <rect class="cls-1" x="123.9026651" y="26.742941" width="33.6082444" height=".3104738"/>
            <rect class="cls-1" x="166.6727937" y="26.3732572" width="1.0499752" height="1.0499741" transform="translate(29.7491622 125.824938) rotate(-44.8831704)"/>
            <path class="cls-1" d="m167.9409482,26.899034c0-.2463166.1973824-.4452784.4422391-.4452784.2439542,0,.4421196.1989618.4421196.4452784,0,.2432773-.1981655.443699-.4421196.443699-.2448567,0-.4422391-.2004217-.4422391-.443699Z"/>
            <path class="cls-1" d="m165.5725451,26.899034c0-.2463166.1958163-.4452784.440673-.4452784.2455203,0,.4421196.1989618.4421196.4452784,0,.2432773-.1965994.443699-.4421196.443699-.2448567,0-.440673-.2004217-.440673-.443699Z"/>
            <path class="cls-1" d="m159.272022,26.742941h-2.149573v.3104738h2.149573c4.7064265,0,4.3062599.650425,6.3005231-.1543809-1.9942631-.8078319-1.5940966-.156093-6.3005231-.156093Z"/>
          </g>
          <g>
            <path class="cls-1" d="m37.7447643,27.9209578c-.8238778-.0719347-1.5866111-1.0174511-1.5881772-1.0219238.0031455-.0015794.7642994-.9517012,1.5881772-1.0236359.8781872-.0735141,1.5376769.7741739,3.3078675,1.0236359-1.7687439.24775-2.4296803,1.0984506-3.3078675,1.0219238Z"/>
            <rect class="cls-1" x="52.3678122" y="26.742941" width="33.6075941" height=".3104738"/>
            <rect class="cls-1" x="42.15525" y="26.3732566" width="1.0499741" height="1.0499754" transform="translate(-6.4953166 38.1624843) rotate(-45.1219428)"/>
            <path class="cls-1" d="m41.9370038,26.899034c0-.2463166-.1965994-.4452784-.4422523-.4452784-.2447372,0-.4421196.1989618-.4421196.4452784,0,.2432773.1973824.443699.4421196.443699.245653,0,.4422523-.2004217.4422523-.443699Z"/>
            <path class="cls-1" d="m44.3053936,26.899034c0-.2463166-.195803-.4452784-.440673-.4452784-.2447239,0-.4421063.1989618-.4421063.4452784,0,.2432773.1973824.443699.4421063.443699.2448699,0,.440673-.2004217.440673-.443699Z"/>
            <path class="cls-1" d="m50.6060494,26.742941h2.1489227v.3104738h-2.1489227c-4.7062938,0-4.3054636.650425-6.3006558-.1543809,1.9951922-.8078319,1.594362-.156093,6.3006558-.156093Z"/>
          </g>
        </g>
        <g>
          <g>
            <path class="cls-1" d="m104.578712,5.8233119c.1927903.5965005.301409,1.2575696.3603238,1.9153606.0573354-.657791.1683298-1.3188601.3588771-1.9153606.6363565-1.9921661,2.434153-2.6637601,3.1578266-1.9400998.708278.71145-2.7387208,1.5024528-3.5068426,6.0632846-.0028933.020001-.0060521.0322246-.0098612.0489209-.0023624-.0166963-.0060521-.0289199-.0076314-.0489209-.7719309-4.5608317-4.218266-5.3518346-3.5105057-6.0632846.7265536-.7236603,2.520541-.0520664,3.1578133,1.9400998Z"/>
            <path class="cls-1" d="m104.1326505.9409374c-.973786-.6303045-1.7158679.5645413-.9340759,1.5040189.6809242.8124373,1.6150134,1.8052952,1.7419078,3.5741586.1270404-1.7688634,1.0626957-2.7587085,1.739678-3.5741586.7825884-.9394776.0398428-2.1343234-.9317135-1.5040189.0451118-.3763697-.2157908-.9440831-.8079646-.9409243-.5958501,0-.8605618.5645546-.8078319.9409243Zm.8063852.9363056c.4122707.0077642.8437328.3015417.7779829.8691223-.0757438.6517256-.6274112,1.0373062-.7779829,2.431127-.1492578-1.3938208-.7047343-1.7794014-.7795623-2.431127-.0657499-.5675806.3672916-.8613582.7795623-.8691223Z"/>
            <path class="cls-1" d="m98.9912183,9.9312471c1.8742039,1.828309,4.2869092,2.2613505,5.9492641,2.6682328-.4046393-1.6599792-.8407068-4.0774359-2.6659898-5.9500604-1.4581241-1.4948081-2.9345238-1.3892154-3.8541464-.5677133-.8199227.9180432-.9255287,2.394443.5708721,3.849541Zm.5874224-.6120155c-.9791744-1.032714-.5967659-1.8788093-.1989618-2.2781928.3993835-.4009629,1.2485048-.7803454,2.2789758.1958163,1.8567113,1.7625458,2.6874242,3.7591847,3.241454,5.3230342-1.5606907-.5540298-3.5574623-1.3847427-5.3214681-3.2406577Z"/>
            <path class="cls-1" d="m107.6050255,6.6494194c-1.825283,1.8726245-2.2612178,4.2900813-2.6645431,5.9500604,1.6593289-.4068822,4.0736269-.8399237,5.9479635-2.6682328,1.4940118-1.455098,1.3907815-2.9314978.5699298-3.849541-.9202597-.8215021-2.395226-.9270948-3.8533501.5677133Zm.6166342.5874356c1.0280953-.9761617,1.8764336-.5967792,2.275034-.1958163.402529.3993835.7833714,1.2454788-.1988423,2.2781928-1.7625591,1.8559149-3.7577513,2.6866279-5.3175263,3.2406577.552331-1.5638495,1.383827-3.5604883,3.2413346-5.3230342Z"/>
          </g>
          <path class="cls-1" d="m105.4568991,13.5940499c0,.2875928-.231704.5187792-.5178634.5187792-.285363,0-.5178634-.2311864-.5178634-.5187792,0-.2831333.2325003-.5156337.5178634-.5156337.2861594,0,.5178634.2325003.5178634.5156337Z"/>
          <g>
            <g>
              <path class="cls-1" d="m120.3591385,29.9085186c-11.4888987-2.1449809-13.3087932-12.7572718-22.7005966-15.4913872,8.566479,1.5591246,11.3993519,11.9141893,22.6731101,14.1342504,11.5759635,2.2781928,17.6867224-5.8722064,18.7792669-9.9021681,1.1780168-4.3681875-1.0596696-7.6026736-4.2359046-7.5108839-3.8081056.1087514-5.3127881,5.6854682-1.9102376,7.0165652,2.1176271.8340044,3.8036462-1.5988347,2.4052199-2.8089434-1.4473339-1.2469254-.9775951,1.5391369-1.5560853,1.2820434-1.5284794-.6731733-.0671966-2.6191791,1.326611-1.9844152,2.7493783,1.2469387,1.1214777,5.8752457-2.6699316,4.6802539-4.2013176-1.3218862-2.946628-8.3690833,2.4196865-8.4424646,3.3392958-.0458949,5.8239491,3.7547253,4.5288858,7.9743052-1.9561324,6.3818013-9.898359,12.7633239-19.0600246,11.0528444Z"/>
              <path class="cls-1" d="m150.7694614,17.07326c5.1974537.656477,7.6179365,5.1836508,6.7219913,9.2642455-1.7119261,7.8013832-11.000632,6.9079332-11.374626,1.6463089-.1881849-2.5918254,2.0287175-3.8082516,3.4760646-3.5527374.8491213.1483421,1.3709398.6625291,1.5759536,1.0863598.4008169.8566333.0925728,1.6509144-.4398899,2.0133484-.3633498.2556336-1.1513266.3703044-1.5758209-.2432905-.0222175-.0182757-.0689087-.1345258-.0819286-.1728025-.030632-.1055927-.0344543-.2202635.005269-.338093.0965146-.2953569.4155489-.4559226.7099901-.3611068.299166.0963951.4581656.4160798.3617704.7114367-.0673293.2051466-.234876.3320542-.4229149.3687383.3425657.0382634.6493632-.1116448.7894102-.2264483.4275336-.3519093.5653509-.9975961.3221931-1.5315054-.2708965-.599792-.9632745-.9178972-1.5789797-.9637921-1.363441-.0889097-3.2360655,1.0540024-3.0248669,3.3321952.4390936,4.7154913,9.64968,5.708482,10.5959928-1.9920334.4352712-3.5419472-1.7036443-7.5765143-6.1598124-7.9973323-9.0522638-.8553061-11.8911755,11.2928302-23.7110799,12.206268,12.2062547-1.8589542,14.7660015-14.3894991,23.8112841-13.249759Z"/>
              <path class="cls-1" d="m129.257539,23.9858119c-1.9598221-6.3786425-9.9020354-12.7601651-19.0575294-11.0450802-11.4903453,2.1451004-13.3133986,12.7526664-22.7037554,15.4883611,8.5650323-1.5592574,11.4000155-11.9157687,22.6729907-14.1342636,11.5776624-2.2751535,17.6877708,5.872087,18.7793864,9.9021814,1.1780168,4.3620027-1.0587406,7.4709084-4.2357719,7.5107512-4.2450889.0519469-5.3335589-5.7359685-1.910357-7.0165652,2.5062072-.937885,4.0513961,2.3484154,2.4265216,3.0630109-.6593703.2893049-1.263635.0061848-1.4579914-.4619747.0719347.036684.1346586.0932364.2218429.0932364.3060144,0,.5523177-.2478827.5523177-.5523177,0-.3060144-.2463033-.5537644-.5523177-.5537644-.1530669.0182757-.3167913.0779735-.4176592.2263156-.3978041.5891345.1545269,1.8514555,1.4168346,1.5897566,2.6621807-.5508711,1.1092408-5.7666137-2.6836151-4.5747807-4.20368,1.3220189-3.3485066,8.4502288,2.4227125,8.4457561,3.3346904-.0031588,5.8193437-3.7547253,4.5263907-7.9806227Z"/>
            </g>
            <g>
              <path class="cls-1" d="m89.5189329,29.9085186c11.4887792-2.1449809,13.3110362-12.7572718,22.7005966-15.4913872-8.5650323,1.5591246-11.4000023,11.9141893-22.6716635,14.1342504-11.5774102,2.2781928-17.6883017-5.8722064-18.7814966-9.9021681-1.1772337-4.3681875,1.0595369-7.6026736,4.237338-7.5108839,3.8082516.1087514,5.3121378,5.6854682,1.9102376,7.0165652-2.1159018.8340044-3.8044292-1.5988347-2.406003-2.8089434,1.4473339-1.2469254.9777411,1.5391369,1.5560986,1.2820434,1.5292624-.6731733.0671966-2.6191791-1.3272879-1.9844152-2.7487014,1.2469387-1.119102,5.8752457,2.6706085,4.6802539,4.2028837-1.3218862,2.9468801-8.3690833-2.4204828-8.4424646-3.3369334-.0458949-5.8239491,3.7547253-4.5265234,7.9743052,1.9546858,6.3818013,9.8967796,12.7633239,19.0585779,11.0528444Z"/>
              <path class="cls-1" d="m59.1084773,17.07326c-5.1958743.656477-7.6162244,5.1836508-6.721195,9.2642455,1.7119261,7.8013832,10.9991721,6.9079332,11.3739624,1.6463089.1883176-2.5918254-2.0288502-3.8082516-3.4761841-3.5527374-.8491346.1483421-1.3708071.6625291-1.57675,1.0863598-.4006974.8566333-.0909934,1.6509144.441602,2.0133484.3625535.2556336,1.15276.3703044,1.5758209-.2432905.0222175-.0182757.0673293-.1345258.0819153-.1728025.0289331-.1055927.0344543-.2202635-.0053885-.338093-.0957315-.2953569-.4146331-.4559226-.7114367-.3611068-.2968036.0963951-.457502.4160798-.3595407.7114367.0665462.2051466.2340797.3320542.4206852.3687383-.3396724.0382634-.6493632-.1116448-.7879768-.2264483-.4283034-.3519093-.565988-.9975961-.3228434-1.5315054.2724759-.599792.9639381-.9178972,1.5783293-.9637921,1.3631756-.0889097,3.2375122,1.0540024,3.0255172,3.3321952-.4392263,4.7154913-9.6498127,5.708482-10.5953292-1.9920334-.4344882-3.5419472,1.7044407-7.5765143,6.1599452-7.9973323,9.0529141-.8553061,11.8910428,11.2928302,23.711863,12.206268-12.2063875-1.8589542-14.7674482-14.3894991-23.8129962-13.249759Z"/>
              <path class="cls-1" d="m80.620413,23.9858119c1.9599415-6.3786425,9.9021681-12.7601651,19.0592282-11.0450802,11.4895623,2.1451004,13.3110362,12.7526664,22.7015124,15.4883611-8.5627893-1.5592574-11.3993519-11.9157687-22.6724465-14.1342636-11.5775429-2.2751535-17.6884345,5.872087-18.7793996,9.9021814-1.1772205,4.3620027,1.0604527,7.4709084,4.235241,7.5107512,4.245633.0519469,5.3365982-5.7359685,1.9116842-7.0165652-2.5060877-.937885-4.0521792,2.3484154-2.4273046,3.0630109.6593571.2893049,1.2653338.0061848,1.4595575-.4619747-.0735008.036684-.1361052.0932364-.2234222.0932364-.3036387,0-.5523177-.2478827-.5523177-.5523177,0-.3060144.248679-.5537644.5523177-.5537644.1530802.0182757.3175877.0779735.4176592.2263156.3978041.5891345-.1545136,1.8514555-1.4167019,1.5897566-2.6621807-.5508711-1.1092408-5.7666137,2.6821684-4.5747807,4.205923,1.3220189,3.3506169,8.4502288-2.4190229,8.4457561-3.3369334-.0031588-5.8215734-3.7547253-4.5287531-7.9806227Z"/>
            </g>
          </g>
        </g>
      </g>
    </g>
  </g>
</svg>