<?xml version="1.0" encoding="UTF-8"?>
<svg id="_レイヤー_2" data-name="レイヤー 2" xmlns="http://www.w3.org/2000/svg" viewBox="0 0 300 110">
  <defs>
    <style>
      .cls-1 {
        fill: #462e2e;
      }

      .cls-1, .cls-2 {
        stroke-width: 0px;
      }

      .cls-2 {
        fill: none;
      }
    </style>
  </defs>
  <g id="top">
    <g>
      <g>
        <g>
          <g>
            <path class="cls-1" d="m102.4494311,89.6653786h1.1054783c.3574284,0,.8157938.0597474.8157938.4871829v3.8446353s-1.2435311.4564251-3.4899439.4564251c-2.2452058,0-5.2467597-1.2362889-5.2467597-4.6604502,0-3.422049,3.1313085-4.7541451,5.4441073-4.7541451,1.0440712,0,2.3456901.061558,2.3456901.6474147v1.1430468c-.8787097-.7169691-1.2353837-.8499134-2.5704974-.8499134-1.3405452,0-3.7379863.8772222-3.7379863,3.7360461,0,2.8440379,3.2145928,4.5423133,5.891006,3.4674631v-2.1823111c0-.4577406-.0362106-1.3353941-.5568883-1.3353941Z"/>
            <path class="cls-1" d="m119.2377044,94.2206673h2.8327222c-.7803376-.2931547-1.1054783-1.2350819-1.367854-1.921423-.2637336-.681513-2.3149111-5.6692162-2.5383605-6.3538975-.2329546-.6828709-.5534181-.6828709-.8206219-.6828709h-1.6219315c.7788289.2620739.3497337.8157938.2199792,1.2059413-.1277931.3883796-2.8635012,7.1710706-2.8635012,7.1710706-.9470571-.2605652-3.3315227-3.7490002-3.3315227-3.7490002,3.161333-.9096395,2.6789782-4.6280116-.4195899-4.6280116h-3.5528598c.7187797.1620423.6539024.9146185.6539024,1.5004752v6.157757c0,.8452149-.2617722,1.0764887-.6846814,1.2999592h2.6045956c-.7154604-.3239337-.5247514-1.0748502-.5247514-1.4324295v-6.643582h1.4054225c.7530288,0,1.3029768.9131097,1.3029768,1.5327629,0,1.003787-.7850148,1.3972751-1.5618823,1.6887701-.7851657.292702-.3593898.9452466,0,1.4648681.3572776.5229409,1.398633,1.9923141,2.0231143,2.7097571.6169375.71712,1.1717135.6798533,1.4635103.6798533h2.3455392c-.9079799-.2896845-.4209478-1.0033343-.2930038-1.3627242.1332247-.3612004.7174218-1.8926054.7174218-1.8926054h3.519365s.425625,1.1054783.8157938,2.0879916c.3949969.9728571.093544,1.1041204-.3237828,1.167338Zm-3.6521371-4.2980429l1.3351136-3.4866245,1.4362015,3.4866245h-2.7713151Z"/>
            <path class="cls-1" d="m147.7811335,94.2206673h2.8410204c-.7871271-.2931547-1.1103064-1.2350819-1.3692119-1.921423-.2590564-.681513-2.3155146-5.6692162-2.5416798-6.3538975-.2303897-.6828709-.5507023-.6828709-.8179061-.6828709h-1.626156c.7865236.2620739.3574284.8157938.2248072,1.2059413-.1297545.3883796-2.8683292,7.1710706-2.8683292,7.1710706-.1816563.4257759-.4488601.4321127-.6169375.5811795h2.347048c-.9129588-.2896845-.424418-1.0033343-.2945126-1.3627242.129151-.3612004.7201376-1.8926054.7201376-1.8926054h3.5180071s.4290952,1.1054783.8185096,2.0879916c.3888109.9728571.0942983,1.1041204-.3347968,1.167338Zm-3.6450458-4.2980429l1.3351136-3.4866245,1.4327313,3.4866245h-2.7678449Z"/>
            <path class="cls-1" d="m137.7565408,94.3873868c.3251407-.2945126.6196533-.5244708.6196533-1.5640157v-6.1592446c0-.4870321-.0375685-1.0457309-.6196533-1.2396083h2.5041113c-.2589055.2311441-.5685058.5208286-.5685058,1.1765415v6.2223113c0,.5555516-.1134598,1.3716471.6053199,1.5640157h-2.5409254Z"/>
            <path class="cls-1" d="m124.2540744,87.3457903s-.0321369,4.9193346-.0321369,5.4775808c0,.5555516.0662352,1.3716471.7830534,1.5640157h-2.3811463c.332081-.2945126.5861585-.5244708.5861585-1.5640157,0-1.0405799.0697053-5.6750792.0697053-6.1592446,0-.4870321-.0697053-1.0457309-.6558638-1.2396083h1.8310475l5.471567,6.8747261v-5.6008687c0-.3610495.0662352-1.0427133-.6833235-1.3032785h2.4427042c-.2896845.2232985-.720892.3237828-.720892,1.2690293v8.0856677s-.6798533.1247756-1.7853316-1.2089801c-1.1116643-1.3337557-4.9255419-6.1950237-4.9255419-6.1950237Z"/>
            <path class="cls-1" d="m139.8280868,101.3254814c-7.1665231-6.0413008-9.909775-13.1509219-.1065194-22.8521841.307488-.3073371.5985304-.1246247.3572776.1504247-4.2962325,4.9131484-9.089304,12.7702583-.098372,22.4024188.1394107.1455966.0875089.4660601-.1523861.2993406Z"/>
          </g>
          <g>
            <path class="cls-1" d="m156.2934001,88.2413504c-.2789507.2789507-.5939761.5700661-.9580801.8490167l-.2059621-.1942168c1.1153831-1.1153831,1.903576-2.376324,2.3524139-3.783242.6548.0973181.9698254.2185463.9698254.3519392,0,.0847339-.1455577.157303-.4240889.2059621l-.0121648.0243295c.6669647.2667859,1.1879523.5579013,1.564221.8972563.3271902.2911154.4849127.5579013.4849127.7881929,0,.2424564-.1090634.3880141-.3397745.3880141-.1329735,0-.2663664-.1090634-.3997594-.3515198-.3276097-.5579013-.7881929-1.0671436-1.4186633-1.4794872-.4610027.860762-.9580801,1.5885506-1.5038167,2.1946915.0968986.0243295.2667859.1090634.5092422.2181268l.0729772.0364943h.5818228v-1.4790677c.6548.0117453.9824097.0847339.9824097.2302916,0,.0847339-.1333929.1816325-.3880141.2911154v.9576607h.5696466l.3758493-.472748c.4123436.339355.6065604.5574818.6065604.6548,0,.0360748-.0243295.0847339-.0729886.1212282l-.2546211.1577225v3.1401874h-.5818114v-.4484184h-1.9039955v2.1825267c.5822308-.1577225,1.176207-.3397745,1.8066774-.5457365-.1694678-.3758493-.3880141-.7273691-.6665452-1.0549788l.1937973-.1577225c.9215858.6426352,1.3700043,1.2491956,1.3700043,1.8188422,0,.2911154-.1212282.4366731-.363696.4366731-.1816211,0-.3028493-.1577225-.3636731-.472748-.0121648-.0973181-.0364943-.1942168-.0604044-.2911154-.885511.4366731-1.746273.8125224-2.6070351,1.1153831-.0121648.2424564-.0851534.3758493-.1698872.3758493-.1577225,0-.339355-.2906959-.5579013-.8850916,0,0,.0851534-.0243295.2424564-.0604044.2185463-.0486591.4123436-.0973181.5700661-.1333929v-5.6264137Zm.6061409.4123436v1.1397127h1.9039955v-1.1397127h-1.9039955Zm0,2.6070351h1.9039955v-1.2005365h-1.9039955v1.2005365Zm4.1347618-2.2068562v.521407c0,1.1640422-.1090634,2.1581972-.3150255,2.9828844-.2302916.9459154-.6791295,1.7701831-1.3339294,2.4979717l-.2302916-.1577225c.5579013-.8003577.9215858-1.7219435,1.0910536-2.8012518.1216477-.67871.1698872-1.5277267.1698872-2.5097169v-3.6863434c.315445.1333929.5700661.2667859.7516986.3880141h2.6800237l.5574818-.7395338c.2302916.2059621.4731674.472748.7277886.7881929l-.1333929.2181268h-3.965294v2.2311858h2.7039337l.4245084-.521407c.4366731.3880141.6548.6426352.6548.7516986,0,.0243295-.0364943.0608238-.0968986.1090634l-.3032802.1455577c-.2302916,1.2974352-.5939761,2.3767435-1.1153831,3.2253407.5335718.6548,1.2005365,1.2370308,1.9883099,1.7706026-.2059621.157303-.3758493.3515198-.521407.6061409-.7030395-.521407-1.3091804-1.1397127-1.7945126-1.8431717-.6183057.8246872-1.4186633,1.4794872-2.4493126,1.9643999l-.1694678-.2424564c.9698254-.5943956,1.7336888-1.3460942,2.2794254-2.2676801-.521407-.8850916-.8972563-2.0248042-1.1518774-3.4313028h-.4488379Zm.7881929,0c.2302916,1.1275479.6065604,2.0856281,1.1036379,2.9098958.3880141-.7395338.67871-1.721524.860762-2.9098958h-1.9643999Z"/>
            <path class="cls-1" d="m168.6184048,88.3625785c-.0725691.2424564-.1455577.3636845-.2181268.3636845-.1577225,0-.2789507-.3150255-.3636845-.9576607.5574818-.0121648.9094211-.0243295,1.0306493-.0364943.3880141-.7516986.6908748-1.5763858.9576607-2.5097169.6669647.1937973.9945744.3636845.9945744.521407,0,.0968986-.1577225.157303-.4853322.1816325-.2424564.4970775-.6061409,1.0793083-1.1275479,1.7945126h.1090634c.8490167,0,1.697614-.1333929,2.558376-.2302916-.2424564-.3515198-.5331523-.6912943-.9090016-1.0184845l.157303-.1942168c.6912943.4001788,1.2005365.8125224,1.5398915,1.2491956.2307111.3150255.3397745.5696466.3397745.7881929,0,.2546211-.1090634.3880141-.3397745.3880141-.157303,0-.2667859-.1212282-.339355-.3758493-.0608238-.1698872-.1455577-.364104-.2789507-.5700661-.9698254.2302916-2.1825267.4245084-3.6255196.6061409Zm3.0315434.8125224l.4001788-.4605832c.4240889.3271902.6304704.521407.6304704.6183057,0,.0360748-.0243295.0847339-.0968986.1333929l-.2428876.1455577v4.6075098c0,.4849127-.3393432.7152043-1.0184727.703459,0-.1942168-.0968986-.3276097-.3028607-.4245084-.1577225-.0486591-.4245084-.1212282-.7760281-.182052v-.2911154c.4970775.0486591.8850916.0851534,1.1397127.0851534.2302916,0,.3515198-.1090634.3515198-.3276097v-1.3578395h-2.219021v2.5827055h-.6061409v-6.1234912c.2424564.0851534.472748.182052.6912943.2911154h2.0491338Zm-2.1342871.2789507v1.1397127h2.219021v-1.1397127h-2.219021Zm2.219021,2.7039337v-1.2852704h-2.219021v1.2852704h2.219021Zm2.5462112-4.6804984c.8733463-.3636845,1.6128801-.8125224,2.2555153-1.3456747.4605832.3150255.703459.5453171.703459.67871,0,.0729886-.0851534.1090634-.2185463.1090634-.1090634,0-.2181268-.0117453-.3271902-.0482396-.6548.3515198-1.4673224.6548-2.4132378.9215858v1.1153831c0,.1577225.0364943.2667859.1455577.315445.1090634.0482396.4853322.0725691,1.1036379.0725691.67871,0,1.0549788-.0725691,1.1518774-.2424564.1090634-.1942168.1816325-.6548.2302916-1.3460942l.2911154.1090634c0,.5700661.0243295.9215858.0604044,1.0914731.0729886.1577225.182052.2424564.3519392.2424564-.0121648.3276097-.1698872.521407-.4488379.5943956-.2789507.0725691-.8003577.1090634-1.564221.1090634-.8972563,0-1.4551576-.0486591-1.6732845-.1577225-.1816325-.0968986-.2789507-.3032802-.2789507-.6304704v-3.7954068c.703459.0364943,1.0671436.1333929,1.0671436.2789507,0,.1090634-.1577225.2059621-.4366731.3032802v1.6246254Zm0,4.8382208c.8611815-.3276097,1.6493744-.8003577,2.3524139-1.4186633.4610027.3271902.6912943.5574818.6912943.7030395,0,.0729886-.0729886.1090634-.1942168.1090634-.0725691,0-.1816325-.0121648-.3271902-.0482396-.7638634.4245084-1.6128801.7395338-2.5223012.9698254v1.1518774c0,.2063815.0364943.315445.1577225.3519392.1333929.0360748.4123436.0604044.8611815.0604044.7273691,0,1.1518774-.0243295,1.2852704-.0725691.2546211-.0851534.4362537-.6183057.5092422-1.6372096l.2789507.0973181c0,.6304704.0360748,1.0306493.0725691,1.2122818.0364943.1698872.1212282.2667859.3150255.2667859-.0239101.2911154-.157303.4849127-.4119241.5700661-.2424564.0847339-.8125224.1333929-1.6854492.1333929-1.0549788,0-1.6611197-.0608238-1.8188422-.1942168-.1212282-.0968986-.1942168-.3028607-.1942168-.5818114v-3.734583c.703459.0360748,1.0671436.1212282,1.0671436.2789507,0,.0968986-.1577225.1937973-.4366731.2906959v1.4916519Z"/>
            <path class="cls-1" d="m180.6405489,94.1467147c.3150255-.8733463.4970775-1.879666.5696466-3.0193787.6304704.1090634.9459154.2424564.9459154.3880141,0,.0725691-.1212282.1455577-.3515198.2181268-.1942168,1.0184845-.4970775,1.8553365-.9337506,2.5344659l-.2302916-.1212282Zm3.2010112-7.6755475c.5457365.2181268.8125224.4001788.8125224.5457365,0,.0968986-.1333929.157303-.4245084.1694678-.521407.8003577-1.1640422,1.6250449-1.9643999,2.4132378l-.0968986.0968986.3150255-.0243295c.182052-.0243295.4245084-.0482396.7399533-.0847339.3758493-.0364943.6061409-.0608238.6908748-.0729886-.0847339-.2667859-.2546211-.5574818-.472748-.8364325l.1942168-.1577225c.7273691.5579013,1.1032184,1.0793083,1.1032184,1.5763858,0,.2546211-.1333929.4001788-.3880141.4001788-.1577225,0-.2546211-.1455577-.2789507-.4001788,0-.0608238-.0243295-.1577225-.0725691-.3032802l-.0973181.0243295c-.3515198.1212282-.6426352.1577225-.8364325.2059621v4.9837785h-.6183057v-4.8625504c-.2185463.0486591-.6065604.1216477-1.1883717.2185463-.0486591.2424564-.1212282.3758493-.1942168.3758493-.1333929,0-.2667859-.315445-.4119241-.9337506.4970775-.0243295.8729268-.0482396,1.1153831-.0725691.8125224-1.0306493,1.5033972-2.1221224,2.0734633-3.261835Zm-1.224866-1.3943338c.5943956.2181268.885511.3880141.885511.5335718,0,.0847339-.1333929.1451382-.4001788.157303-.2911154.4731674-.6548.9824097-1.1036379,1.5281462.3636845.3150255.5579013.6061409.5579013.8729268s-.1212402.4001788-.3515198.4001788c-.1577225,0-.2667859-.1090634-.3397745-.3397745-.1455577-.4605832-.472748-.9094211-.994155-1.33351l.1212282-.1942168c.3271902.1455577.5818114.2789507.7760281.4123436.3271902-.6183057.6061409-1.2974352.8485973-2.036969Zm.9459154,5.7111476c.6912943.5818114,1.042814,1.1397127,1.042814,1.6367902,0,.2789507-.1212282.4245084-.3758493.4245084-.1698872,0-.2667859-.1333929-.2911275-.4123436-.0364822-.4610027-.2181148-.9702449-.5457245-1.5038167l.1698872-.1451382Zm4.1712561,3.4921266c0,.5209875-.339355.7638634-1.0063197.7516986-.0121648-.2063815-.1090634-.3636845-.3032802-.4366731-.1577225-.0725691-.4366731-.1455577-.8125224-.2181268v-.2789507c.5457365.0604044.9337506.0847339,1.1640422.0847339s.3519392-.1090634.3519392-.339355v-1.746273c-.4853322.3880141-1.1158026.8125224-1.8918308,1.2974352-.0243295.2911154-.0725691.4488379-.1694678.4488379-.1216477,0-.3276097-.3032802-.5700661-.8729268,1.0063197-.3880141,1.8792465-.8003577,2.6313646-1.2370308v-2.4736421h-2.5709602l-.1212282-.2667859h3.8801407v-1.3943338h-2.9342253l-.1090634-.2789507h3.0432887v-1.2974352h-3.1645169l-.1212282-.2667859h3.213176l.4123436-.472748c.4240889.339355.6304704.5579013.6304704.6669647,0,.0486591-.0364943.0968986-.0847339.1333929l-.2667859.1577225v2.7521733h.5696466l.4970775-.7152043.1577225.1455577c.1333929.1212282.3032802.3515198.5092422.6304704l-.1333929.2059621h-2.7765028c.1212282.7760281.3880141,1.5159815.7999382,2.1825267.4488379-.5092422.8246872-1.0545593,1.1401322-1.6367902.521407.315445.7881929.5457365.7881929.6912943,0,.0725691-.0729886.1212282-.2063815.1212282-.0725691,0-.1455577-.0121648-.2302916-.0364943-.3880141.3758493-.8246872.7395338-1.3339294,1.1036379.4610027.7030395,1.1036379,1.33351,1.9279056,1.8914113-.2546211.182052-.4484184.3758493-.5574818.5818114-1.2127013-1.0306493-1.9887294-2.3037549-2.3524139-3.8071521v3.9287997Zm-2.6435294-4.4623715c.9094211.5335718,1.358259,1.0306493,1.358259,1.4794872,0,.2546211-.1212282.3880141-.3636845.3880141-.1577225,0-.2667859-.1212282-.3276097-.364104-.1090634-.4484184-.3880141-.8729268-.8242677-1.3091804l.157303-.1942168Z"/>
            <path class="cls-1" d="m197.694711,86.0101646l.4245084-.4970775c.4245084.3397745.6426352.5700661.6426352.6791295,0,.0486591-.0243295.0968986-.0847339.1212282l-.2667859.1698872v.3636845h3.6255196l.5335718-.7760281c.3271902.3271902.5696466.5939761.7273691.8125224l-.1090634.2302916h-2.0008942v6.8630251c0,.5457365-.3758493.8485973-1.1518774.9094211-.0121648-.2181268-.1455577-.3880141-.3880141-.4849127-.1937973-.0729886-.5818114-.1577225-1.1640422-.2428758v-.3150255c.7156238.0968986,1.2731056.1212282,1.6493744.1212282.2663664,0,.3997594-.1212282.3997594-.3636845v-6.4871758h-2.1217029v5.7837167h-.6061409v-.860762h-3.1892659v1.2244466h-.6304704v-7.5782294c.2181268.0847339.4366731.1942168.6912943.3271902h3.0189592Zm-3.079783.2789507v2.4254025h1.224866v-2.4254025h-1.224866Zm1.224866,2.7039337h-1.224866v2.7769223h1.224866v-2.7769223Zm1.9643999-.2785312v-2.4254025h-1.3460942v2.4254025h1.3460942Zm0,3.0554535v-2.7769223h-1.3460942v2.7769223h1.3460942Z"/>
          </g>
        </g>
        <g>
          <path class="cls-1" d="m78.0617938,66.0582714h-4.4976074v-.2042842c.7592492-.7596686.5256018-1.7819284-.2923738-3.9136987l-1.4308281-3.708995h-7.2430691l-.7886124,2.2194405c-.9345896,2.6577915-1.0805667,4.0886196.1459772,5.4032532v.2042842h-3.4464039v-.2042842c1.2559072-1.3146336,2.1028265-2.6577915,3.0667793-5.4032532l4.3809934-12.3250047-.9639528-2.5113948h2.3071107l5.6952076,14.8363996c1.1976002,2.9208021,1.9568493,4.0886196,3.0667793,5.4032532v.2042842Zm-6.3084795-8.0610447l-3.6800513-9.5501798-3.3876774,9.5501798h7.0677287Z"/>
          <path class="cls-1" d="m94.6817997,65.8539873v.2042842h-3.6217443v-.2042842c.4672948-.2630106.5843282-.7596686.496658-1.7232019-.0876702-.9639528-.5256018-5.8994917-.6715789-7.4184095-.2047036-2.1904967-1.2852704-4.6729478-3.7970847-4.1762898-3.2710635.6422157-3.8843354,6.7464111-3.8843354,9.199499v2.3952004c0,1.0222598.2047036,1.4601913.6719984,1.7232019v.2042842h-3.6217443v-.2042842c.4379316-.2630106.6426352-.7009422.6426352-1.7232019v-9.8719169c0-1.0218403-.0876702-1.3142141-.6426352-1.4018843v-.2042842l2.7454617-.6426352h.2042842v7.2430691c.3796246-3.2710635,1.3725211-7.2430691,5.1696058-7.2430691,2.3947809,0,4.4393004,1.6355317,4.7895618,5.1402426.2919544,2.8331319.5843282,5.8999112.7009422,6.980478.1170334,1.0512035.3796246,1.4601913.8179756,1.7232019Z"/>
          <path class="cls-1" d="m107.6502786,60.9473921c-.554965,2.7450422-1.7815089,5.2862198-4.8478687,5.2862198-2.5994845,0-4.205653-1.6942582-4.205653-5.1402426v-8.8496571h-1.7232019v-.2336474c2.4824511,0,2.6867353-2.599065,2.6867353-4.0009494h2.3075302c0,2.2488037-2.2198599,3.9132792-3.9720056,4.0009494h6.4544567v.2336474h-3.4464039v9.2875886c0,2.5407581.7009422,4.4976074,3.1833933,4.1767093,1.9274861-.2630106,2.8914389-2.5705408,3.4170407-4.8193445l.1459772.0587265Z"/>
          <path class="cls-1" d="m112.5870759,65.8539873v.2042842h-3.6217443v-.2042842c.4379316-.2630106.6426352-.7009422.6426352-1.7232019v-9.8719169c0-1.0218403-.0876804-1.3142141-.6426352-1.4018843v-.2042842l2.7454617-.6426352h.2042842v12.1207206c0,1.0222598.2047036,1.4601913.6719984,1.7232019Zm-3.2710635-17.5822808c0-.7592492.613272-1.3725211,1.3725211-1.3725211s1.3725211.613272,1.3725211,1.3725211c0,.7596686-.613272,1.3729406-1.3725211,1.3729406s-1.3725211-.613272-1.3725211-1.3729406Z"/>
          <path class="cls-1" d="m129.8774023,72.3961142v.2042842l-2.7454617.6426352h-.2336474v-15.01174c-.5256018,3.3876774-2.0151563,8.0023183-6.1041954,8.0023183-2.3947809,0-5.3151635-2.0445195-5.4028337-5.7828778-.2047036-7.2137059,6.5127637-8.4406693,9.7838272-8.4406693,1.5189178,0,2.6577915.6426352,3.2417002.6136914.4089878-.0293632.554965-.4089878.6136914-.6136914h.1749209v18.9841651c0,1.0218403.0876702,1.3142141.6719984,1.4018843Zm-2.9791091-19.9770616c-.1459772-.0293632-.8179756-.2625911-1.7525652-.2625911-2.8037687.058307-7.9146481,1.2848509-7.5056603,8.7322042.1459772,2.5411775,1.9568493,5.2866393,4.4393004,4.8193445,3.3000072-.6426352,4.818925-6.7468306,4.818925-9.1999184v-4.0890391Z"/>
          <path class="cls-1" d="m146.2629218,66.0582714h-2.9786896v-7.0970919c-.3800441,3.3004267-1.3729406,7.2724323-5.1696058,7.2724323-2.6871547,0-4.818925-1.6942582-4.818925-5.1402426v-6.8345008c0-1.0218403-.0876702-1.3142141-.6426352-1.4018843v-.2042842l2.7454617-.6426352h.2042842v9.521236c0,2.5407581,1.3142141,4.6440041,3.8260285,4.1767093,3.2710635-.6426352,3.8553917-6.7468306,3.8553917-9.1999184v-2.2492232c0-1.0218403-.0876702-1.3142141-.6426352-1.4018843v-.2042842l2.7450422-.6426352h.2047036v12.1207206c0,1.0222598.2042842,1.4601913.6715789,1.7232019v.2042842Z"/>
          <path class="cls-1" d="m163.2621328,61.4146868c-.1749209,2.0734633-2.0151563,4.818925-6.1620829,4.818925-4.0307321,0-7.9150675-1.9862126-8.0316815-6.8051376-.1463967-5.0525724,4.4393004-7.2430691,7.6516374-7.4184095,2.4824511-.116614,5.8999112,1.0809862,6.3084795,4.6146408h-2.7160985c1.664895.4379316,3.1833933,2.1321897,2.9497459,4.7899812Zm-4.1469266-4.7899812h-7.5643867c-.3796246,1.5478615-.2923738,3.2710635.2042842,4.6729478,1.0805667,3.0667793,3.2710635,4.4103567,6.2501726,4.2933232,2.5118143-.1170334,4.702311-1.8398159,4.9942654-4.1179828.3502613-3.0374161-1.664895-4.8482882-3.8843354-4.8482882Zm-7.5060797-.2336474h9.3165324c-.3796246-2.5407581-2.6577915-4.5852776-5.5198672-4.0303126-1.9857931.3796246-3.2710635,2.0445195-3.7966652,4.0303126Z"/>
          <path class="cls-1" d="m188.3525906,48.0674224l-.8762826,3.0374161h-.2047036c-1.6644755-3.9136987-3.7966652-5.4032532-6.1037759-5.4032532-2.8914389,0-4.5563339,1.6355317-4.7316743,3.3880969-.5545455,5.8411848,11.9747434,3.9136987,11.9747434,11.2150747,0,3.4753476-3.1250863,5.928855-7.2724323,5.928855-3.4753476,0-5.6369006-1.168237-7.9146481-2.8914389l.8758631-3.3293704h.2047036c1.4895545,2.9786896,4.205653,5.6364811,8.0316815,5.6364811,2.4824511,0,4.5559144-1.6061685,4.7895618-3.4464039.7596686-6.2208093-11.7989835-4.2345968-11.7989835-11.5653361,0-2.3658371,1.8981229-5.315583,6.6004339-5.315583,2.2488037,0,4.702311,1.4018843,6.425513,2.7454617Z"/>
          <path class="cls-1" d="m201.6717503,60.9473921c-.5545455,2.7450422-1.7815089,5.2862198-4.8478687,5.2862198-2.5994845,0-4.205653-1.6942582-4.205653-5.1402426v-8.8496571h-1.7232019v-.2336474c2.4824511,0,2.6867353-2.599065,2.6867353-4.0009494h2.3075302c0,2.2488037-2.2198599,3.9132792-3.9720056,4.0009494h6.4544567v.2336474h-3.4464039v9.2875886c0,2.5407581.7009422,4.4976074,3.1833933,4.1767093,1.9274861-.2630106,2.8914389-2.5705408,3.4170407-4.8193445l.1459772.0587265Z"/>
          <path class="cls-1" d="m213.3260151,57.6469654s-2.3364739,5.8118215-3.3876774,8.4113061c-1.051623,2.6284283-2.3658371,4.818925-4.6729478,4.818925-1.5772248,0-2.7160985-.7303054-3.4464039-2.0734633l2.2781669-2.0738828.1753404.1459772c-.2923738,1.6359512.0289438,3.8847549,1.6351123,3.7094145,1.5189178-.1753404,2.716518-2.1028265,3.6800513-4.26396l-3.7383582-8.7913501c-1.2265439-2.8620757-1.8398159-4.1179828-3.2417002-5.2862198v-.2336474h4.4686636v.2336474c-.7303054.7886124-.496658,1.5772248.1749209,3.2127565l3.4757671,8.1193517,2.3947809-5.9582182c1.0805667-2.6867353,1.4312476-4.2933232.116614-5.37389v-.2336474h3.4464039v.2336474c-1.2559072,1.2852704-2.2781669,2.716518-3.3587337,5.4032532Z"/>
          <path class="cls-1" d="m222.4693044,65.8539873v.2042842h-3.5923811v-.2042842c.4379316-.2630106.6426352-.7009422.6426352-1.7232019v-16.8813386c0-1.0218403-.0876702-1.3142141-.6426352-1.4018843v-.2332279l2.7454617-.6136914h.2042842v19.1301423c0,1.0222598.2047036,1.4601913.6426352,1.7232019Z"/>
          <path class="cls-1" d="m239.467257,61.4146868c-.1749209,2.0734633-2.0151563,4.818925-6.1620829,4.818925-4.0307321,0-7.9150675-1.9862126-8.0316815-6.8051376-.1463967-5.0525724,4.4393004-7.2430691,7.6516374-7.4184095,2.4824511-.116614,5.8999112,1.0809862,6.3084795,4.6146408h-2.7160985c1.664895.4379316,3.1833933,2.1321897,2.9497459,4.7899812Zm-4.1469266-4.7899812h-7.5643867c-.3796246,1.5478615-.2923738,3.2710635.2042842,4.6729478,1.0805667,3.0667793,3.2710635,4.4103567,6.2501726,4.2933232,2.5118143-.1170334,4.702311-1.8398159,4.9942654-4.1179828.3502613-3.0374161-1.664895-4.8482882-3.8843354-4.8482882Zm-7.5060797-.2336474h9.3165324c-.3796246-2.5407581-2.6577915-4.5852776-5.5198672-4.0303126-1.9857931.3796246-3.2710635,2.0445195-3.7966652,4.0303126Z"/>
        </g>
        <g>
          <g>
            <g>
              <path class="cls-1" d="m208.3857533,32.6140981c.7085785-.0617979,1.3637051-.8740761,1.3643892-.8779185-.0027136-.0013568-.6558108-.8175914-1.3643892-.8793894-.7544366-.0631548-1.3208798.6650805-2.8417365.8793894,1.5194998.2128381,2.0872998.9436615,2.8417365.8779185Z"/>
              <rect class="cls-1" x="166.9516886" y="31.6020826" width="28.8723092" height=".2667231"/>
              <rect class="cls-1" x="203.6948269" y="31.2844931" width=".902017" height=".9020161" transform="translate(37.1043026 153.3076627) rotate(-44.8831704)"/>
              <path class="cls-1" d="m204.7842784,31.7361796c0-.2116067.1695681-.3825316.3799206-.3825316.2095771,0,.3798179.1709249.3798179.3825316,0,.2089956-.1702408.3811748-.3798179.3811748-.2103525,0-.3799206-.1721791-.3799206-.3811748Z"/>
              <path class="cls-1" d="m202.7496209,31.7361796c0-.2116067.1682227-.3825316.3785751-.3825316.2109226,0,.3798179.1709249.3798179.3825316,0,.2089956-.1688954.3811748-.3798179.3811748-.2103525,0-.3785751-.1721791-.3785751-.3811748Z"/>
              <path class="cls-1" d="m197.3369415,31.6020826h-1.8466641v.2667231h1.8466641c4.0432163,0,3.6994395.5587697,5.4126793-.1326261-1.7132398-.6939955-1.3694631-.134097-5.4126793-.134097Z"/>
            </g>
            <g>
              <path class="cls-1" d="m92.934804,32.6140981c-.7077803-.0617979-1.3630324-.8740761-1.3643778-.8779185.0027022-.0013568.6565975-.8175914,1.3643778-.8793894.7544366-.0631548,1.3209938.6650805,2.8417365.8793894-1.5194998.2128381-2.0872998.9436615-2.8417365.8779185Z"/>
              <rect class="cls-1" x="105.4972323" y="31.6020826" width="28.8717505" height=".2667231"/>
              <rect class="cls-1" x="96.7237823" y="31.2844926" width=".9020161" height=".9020172" transform="translate(6.1201374 78.2019633) rotate(-45.1219428)"/>
              <path class="cls-1" d="m96.5362904,31.7361796c0-.2116067-.1688954-.3825316-.379932-.3825316-.2102498,0-.3798179.1709249-.3798179.3825316,0,.2089956.1695681.3811748.3798179.3811748.2110366,0,.379932-.1721791.379932-.3811748Z"/>
              <path class="cls-1" d="m98.5709365,31.7361796c0-.2116067-.1682113-.3825316-.3785751-.3825316-.2102384,0-.3798065.1709249-.3798065.3825316,0,.2089956.1695681.3811748.3798065.3811748.2103639,0,.3785751-.1721791.3785751-.3811748Z"/>
              <path class="cls-1" d="m103.9837298,31.6020826h1.8461054v.2667231h-1.8461054c-4.0431022,0-3.6987554.5587697-5.4127933-.1326261,1.7140379-.6939955,1.3696911-.134097,5.4127933-.134097Z"/>
            </g>
          </g>
          <g>
            <g>
              <path class="cls-1" d="m150.3507873,13.6303614c.1656231.5124441.2589357,1.0803581.3095484,1.6454559.0492559-.5650978.1446095-1.1330118.3083056-1.6454559.5466838-1.7114383,2.0911422-2.288394,2.7128387-1.6667089.6084703.6111954-2.3527915,1.2907334-3.0126728,5.2088715-.0024856.0171826-.0051992.0276837-.0084716.0420272-.0020295-.0143435-.0051992-.0248446-.0065561-.0420272-.6631536-3.9181381-3.6238454-4.5976761-3.0158197-5.2088715.6241707-.6216851,2.1653568-.0447294,2.7128273,1.6667089Z"/>
              <path class="cls-1" d="m149.967583,9.435991c-.8365641-.5414846-1.4740749.4849885-.8024498,1.2920788.5849712.697952,1.3874323,1.5509005,1.4964453,3.0705029.1091384-1.5196024.912945-2.3699627,1.4945298-3.0705029.6723092-.8070903.0342283-1.8335634-.8004202-1.2920788.0387548-.3233332-.1853824-.8110468-.6941095-.8083331-.5118854,0-.739295.4849999-.6939955.8083331Zm.6927527.8043653c.3541752.0066701.7248375.2590497.6683528.7466492-.0650703.5598871-.538999.8911333-.6683528,2.0885426-.128225-1.1974094-.6054261-1.5286555-.6697096-2.0885426-.0564847-.4875995.3155344-.7399791.6697096-.7466492Z"/>
              <path class="cls-1" d="m145.5506601,17.1594233c1.6100988,1.5706712,3.6828156,1.9426903,5.1109183,2.2922364-.3476192-1.4260618-.7222379-3.5028605-2.2903095-5.1116024-1.2526512-1.2841659-2.5210028-1.1934529-3.311036-.4877135-.7043826.7886764-.795107,2.0570279.4904271,3.3070796Zm.5046452-.5257728c-.8411932-.8871882-.5126721-1.6140552-.1709249-1.9571593.343104-.3444609,1.0725707-.6703823,1.957832.1682227,1.5950712,1.5141751,2.3087235,3.2294559,2.7846817,4.5729341-1.3407646-.4759582-3.0561594-1.1896105-4.5715887-2.7839976Z"/>
              <path class="cls-1" d="m152.9506452,14.3400572c-1.5680716,1.608742-1.9425763,3.6855407-2.2890667,5.1116024,1.4255031-.3495461,3.4995882-.7215652,5.109801-2.2922364,1.2834818-1.2500516,1.1947983-2.5184032.4896176-3.3070796-.7905805-.7057394-2.0577006-.7964524-3.3103519.4877135Zm.5297407.5046566c.8832204-.838605,1.6120143-.5126835,1.9544456-.1682227.3458063.343104.6729819,1.069971-.1708223,1.9571593-1.5141865,1.5943871-3.2282245,2.3080393-4.5682024,2.7839976.4744988-1.3434783,1.1888238-3.058759,2.7845791-4.5729341Z"/>
            </g>
            <path class="cls-1" d="m151.1052239,20.306079c0,.2470664-.1990532.4456749-.4448882.4456749-.2451509,0-.4448882-.1986086-.4448882-.4456749,0-.2432354.1997374-.4429727.4448882-.4429727.245835,0,.4448882.1997374.4448882.4429727Z"/>
            <g>
              <g>
                <path class="cls-1" d="m163.9075012,34.32158c-9.8699304-1.842719-11.4333729-10.9595696-19.5017221-13.3084047,7.3593261,1.3394192,9.7930022,10.2352908,19.4781089,12.1425101,9.9447265,1.9571593,15.1943823-5.0447193,16.13297-8.5067954,1.0120155-3.7526405-.9103453-6.5313362-3.6389984-6.4524811-3.271483.0934266-4.5641319,4.8842955-1.6410548,6.0278197,1.8192199.7164799,3.267652-1.3735335,2.0662862-2.4131187-1.2433816-1.0712138-.8398364,1.3222481-1.3368082,1.1013831-1.3130924-.5783125-.0577275-2.2500952,1.1396705-1.7047796,2.3619472,1.0712252.9634437,5.0473303-2.2936958,4.0207318-3.6092852-1.1356114-2.5314013-7.1897466,2.0787142-7.2527873,2.868736-.0394275,5.0032622,3.2256249,3.8906939,6.850599-1.6804823,5.4825042-8.5035231,10.9647689-16.3741645,9.4953231Z"/>
                <path class="cls-1" d="m190.0325267,23.2950132c4.46505.563969,6.5444483,4.4531921,5.774756,7.9587662-1.4706885,6.7020445-9.4504683,5.9344957-9.7717606,1.4143179-.1616666-2.226596,1.742839-3.2716085,2.9862319-3.0521003.7294666.1274383,1.1777526.5691682,1.3538767.9332744.3443354.7359201.0795278,1.4182743-.3779024,1.7296356-.312148.2196108-.9890864.3181226-1.3537627-.209007-.0190867-.0157003-.0591983-.115569-.0703835-.1484519-.0263154-.090713-.0295992-.1892249.0045265-.2904504.0829141-.2537364.3569915-.3916759.6099412-.3102211.2570088.0828115.3936028.3574475.3107912.611184-.0578415.1762382-.2017783.2852625-.3633195.3167772.2942928.0328715.5578576-.0959122.6781698-.1945381.3672873-.3023197.485684-.857019.276791-1.315692-.2327229-.5152717-.8275338-.7885509-1.3564764-.8279785-1.1713106-.0763809-2.7800525.9054768-2.5986151,2.862636.3772183,4.0510037,8.2898869,4.9040662,9.1028491-1.7113243.3739346-3.0428306-1.4635738-6.5088632-5.2917971-6.8703812-7.7766561-.7347799-10.2155201,9.7014911-20.3698123,10.486211,10.4861996-1.5969981,12.6852374-12.3617902,20.4558961-11.3826575Z"/>
                <path class="cls-1" d="m171.5519758,29.2334767c-1.683652-5.4797905-8.5066814-10.9620552-16.3720209-9.4886531-9.8711732,1.8428217-11.4373293,10.9556132-19.5044358,13.3058051,7.3580833-1.3395332,9.7935723-10.2366477,19.4780063-12.1425215,9.9461859-1.9545482,15.1952831,5.0446167,16.1330727,8.5068068,1.0120155,3.7473272-.9095472,6.4181388-3.6388844,6.4523671-3.6468885.0446268-4.5819758-4.9276794-1.6411574-6.0278197,2.1530428-.8057221,3.4804901,2.0174864,2.0845862,2.631384-.5664546.2485372-1.0855688.0053133-1.2525372-.3968751.0617979.0315147.115683.0800979.1905817.0800979.2628921,0,.4744874-.2129521.4744874-.4744874,0-.2628921-.2115953-.4757302-.4744874-.4757302-.1314974.0157003-.2721504.0669858-.3588044.1944241-.3417472.5061161.1327516,1.590556,1.2171801,1.3657347,2.2870372-.4732446.9529312-4.9540063-2.3054511-3.9301215-3.6113147,1.1357254-2.8766489,7.2594574,2.0813138,7.255615,2.8647796-.0027136,4.9993058-3.2256249,3.8885504-6.8560263Z"/>
              </g>
              <g>
                <path class="cls-1" d="m137.4131702,34.32158c9.8698278-1.842719,11.4352998-10.9595696,19.5017221-13.3084047-7.3580833,1.3394192-9.7935609,10.2352908-19.4768661,12.1425101-9.9459693,1.9571593-15.1957392-5.0447193-16.1348855-8.5067954-1.0113428-3.7526405.9102313-6.5313362,3.6402298-6.4524811,3.2716085.0934266,4.5635732,4.8842955,1.6410548,6.0278197-1.8177376.7164799-3.2683247-1.3735335-2.0669589-2.4131187,1.2433816-1.0712138.8399618,1.3222481,1.3368196,1.1013831,1.3137651-.5783125.0577275-2.2500952-1.140252-1.7047796-2.3613657,1.0712252-.9614028,5.0473303,2.2942773,4.0207318,3.6106306-1.1356114,2.5316179-7.1897466-2.0793983-7.2527873-2.8667065-.0394275-5.0032622,3.2256249-3.8886644,6.850599,1.6792395,5.4825042,8.5021663,10.9647689,16.3729217,9.4953231Z"/>
                <path class="cls-1" d="m111.2880307,23.2950132c-4.4636932.563969-6.5429775,4.4531921-5.7740719,7.9587662,1.4706885,6.7020445,9.4492141,5.9344957,9.7711905,1.4143179.1617806-2.226596-1.742953-3.2716085-2.9863345-3.0521003-.729478.1274383-1.1776386.5691682-1.3545609.9332744-.3442328.7359201-.078171,1.4182743.3793733,1.7296356.3114639.2196108.9903178.3181226,1.3537627-.209007.0190867-.0157003.0578415-.115569.0703721-.1484519.024856-.090713.0295992-.1892249-.0046291-.2904504-.0822414-.2537364-.3562047-.3916759-.611184-.3102211-.2549792.0828115-.3930327.3574475-.3088757.611184.0571688.1762382.2010942.2852625.361404.3167772-.2918072.0328715-.5578576-.0959122-.6769384-.1945381-.3679486-.3023197-.4862313-.857019-.2773496-1.315692.2340797-.5152717.8281039-.7885509,1.3559177-.8279785,1.1710825-.0763809,2.7812953.9054768,2.5991738,2.862636-.3773323,4.0510037-8.2900009,4.9040662-9.1022791-1.7113243-.3732619-3.0428306,1.4642579-6.5088632,5.2919111-6.8703812,7.7772148-.7347799,10.215406,9.7014911,20.370485,10.486211-10.4863137-1.5969981-12.6864802-12.3617902-20.457367-11.3826575Z"/>
                <path class="cls-1" d="m129.768593,29.2334767c1.6837546-5.4797905,8.5067954-10.9620552,16.3734804-9.4886531,9.8705005,1.8428217,11.4352998,10.9556132,19.5025089,13.3058051-7.3561564-1.3395332-9.7930022-10.2366477-19.4775388-12.1425215-9.9460833-1.9545482-15.1958532,5.0446167-16.1330841,8.5068068-1.0113314,3.7473272.9110181,6.4181388,3.6384283,6.4523671,3.6473559.0446268,4.5845868-4.9276794,1.6422976-6.0278197-2.1529402-.8057221-3.4811628,2.0174864-2.0852589,2.631384.5664432.2485372,1.0870282.0053133,1.2538826-.3968751-.0631434.0315147-.1169258.0800979-.1919385.0800979-.2608512,0-.4744874-.2129521-.4744874-.4744874,0-.2628921.2136362-.4757302.4744874-.4757302.1315088.0157003.2728345.0669858.3588044.1944241.3417472.5061161-.1327402,1.590556-1.2170661,1.3657347-2.2870372-.4732446-.9529312-4.9540063,2.3042083-3.9301215,3.6132416,1.1357254,2.8784618,7.2594574-2.0781441,7.255615-2.8667065-.0027136-5.0012213-3.2256249-3.8905799-6.8560263Z"/>
              </g>
            </g>
          </g>
        </g>
      </g>
      <rect class="cls-2" width="300" height="110"/>
    </g>
  </g>
</svg>